<?xml version="1.0" encoding="UTF-8"?>
<svg id="Layer_1" data-name="Layer 1" xmlns="http://www.w3.org/2000/svg" viewBox="0 0 74.54 74.02">
  <defs>
    <style>
      .cls-1 {
        fill: #41b883;
      }

      .cls-1, .cls-2, .cls-3, .cls-4, .cls-5, .cls-6 {
        stroke-width: 0px;
      }

      .cls-2 {
        fill: #f7e5d6;
      }

      .cls-3 {
        fill: #1e1717;
      }

      .cls-4 {
        fill: #d0fdff;
      }

      .cls-5 {
        fill: #fff;
      }

      .cls-6 {
        fill: #f7a21e;
      }
    </style>
  </defs>
  <path class="cls-5" d="M64.94,23.53c-1.71-2.78-6.16-9.74-7.62-10.73-.71-.48-1.04-.91-1.07-1.37-.04-.57.37-.94.77-1.3.19-.17.39-.35.54-.56-.58.13-1.56.52-2.04.71-.61.24-.94.37-1.15.4-.37.04-.68-.16-.79-.53-.15-.47.02-1.32.43-2-.85.22-1.89.53-2.85.82l-.12.04-7.93-1.48C8.27,10.07,2.15,38.09,1.71,40.4c1.56,8.5,5.22,15.01,6.25,16.72.91-.49,3.17-1.39,14.56,2.33,12.27,4.01,15.33.58,15.59.24.2-.48,1.45-2.99,5.92-3.36,2.32-.2,4.52.68,5.88,2.33.87,1.05,2,2.08,5.8,3.06,15.96-9.66,9.33-37.75,9.26-38.04l-.03-.14ZM8.5,38.97c-.24.16-.52.24-.84.24-.16,0-.32-.02-.5-.06-.52-.12-.85-.36-.97-.71-.21-.59.26-1.22.32-1.29l3.29-5.14-.61,5.82s-.12.74-.7,1.13ZM14.01,48.15s-.18,1.05-.99,1.6c-.34.23-.74.35-1.2.35-.23,0-.47-.03-.72-.09-.74-.17-1.2-.5-1.38-.99-.3-.84.43-1.78.46-1.82l3.12-5.96.71,6.88v.03ZM17.31,35.25c-.34.23-.74.35-1.2.35-.23,0-.47-.03-.72-.09-.74-.17-1.2-.5-1.38-.99-.3-.84.43-1.78.46-1.82l3.64-4.82.19,5.73c0,.09-.18,1.09-1,1.64ZM38.97,55.31c-1.11,1.66-2.99,2.66-4.99,2.66-.15,0-.29,0-.44-.02-2.09-.15-3.86-1.34-4.73-3.19-.93-1.97-1.14-4.66-.62-7.99.76-4.83,2.34-8.4,4.72-10.62,1.12-1.04,2.63-1.49,4.16-1.23,1.56.27,2.88,1.23,3.6,2.63,3.86,7.43.59,14.32-1.7,17.77ZM40.9,36.31c-3.18-3.97-7.93-2.6-10.9.87,2.31-4.65,8.43-6.03,11.53-1.35.89,1.29,1.41,2.77,1.6,4.26-.58-1.39-1.33-2.67-2.24-3.78ZM44.01,20.87c-7.62-10.29-13.25,3.75-15.24,5.89,0,0,5.63-12.99,10.55-12.3,4.92.69,4.69,6.41,4.69,6.41ZM59.05,18.59c2.21.29,4.39,8.28,4.39,8.28-5.19-11.72-8.33-2.94-8.48-3.66-.03-.13,1.89-4.91,4.1-4.62ZM63.18,48.15c-1.2,5.27-3.05,7.26-4.53,8.4-.47.36-1.03.55-1.61.55-.21,0-.43-.03-.65-.08-.79-.2-1.43-.74-1.76-1.49-.7-1.58-1.29-4.59-.11-9.95.68-3.08,2.65-8.91,5.25-8.91,1.21,0,2.18.44,2.88,1.31,1.93,2.42,1.16,7.4.53,10.15ZM65.01,42.28c-.05-.64-.06-1.26-.14-1.88-.41-6.05-4.94-5.53-9.34-3.66,3.06-2.36,8.77-3.36,9.57,1.72.24,1.29.14,2.58-.1,3.83Z"/>
  <path class="cls-4" d="M10.6,47.46c-.19.25-.58.9-.41,1.39.11.32.45.54,1.02.67.62.14,1.13.08,1.52-.18.57-.38.75-1.08.78-1.23l-.54-5.16-2.37,4.53Z"/>
  <path class="cls-4" d="M14.87,33c-.17.21-.56.87-.39,1.35.11.32.45.54,1.02.67.62.14,1.13.08,1.52-.19.64-.43.78-1.25.78-1.26l-.14-4.27-2.79,3.69Z"/>
  <path class="cls-2" d="M36.89,35.9c-.23-.04-.46-.06-.68-.06-.97,0-1.9.36-2.62,1.03-2.21,2.06-3.7,5.44-4.42,10.04-.49,3.13-.31,5.62.54,7.41.72,1.52,2.18,2.5,3.9,2.62,1.81.13,3.54-.71,4.52-2.2,2.65-3.98,5.08-10.13,1.64-16.75-.58-1.12-1.63-1.89-2.88-2.1ZM39.24,48.14s-.69,6.21-3.7,5.61c-3.01-.61-2.36-4.74-2.36-4.74l2.36-.51-2.19-1.3s.61-5.54,3.59-4.85c2.99.69,2.29,5.8,2.29,5.8Z"/>
  <path class="cls-6" d="M56.85,63c-.3-.07-.59-.13-.86-.2-2.39-.06-4.82.35-7.15.66-3.63.47-7.49,1.59-10.91,2.21,3.95-1.79,10.07-3.63,15.41-3.64-2.46-.87-3.42-1.8-4.2-2.75-1.14-1.38-3.06-2.13-5.03-1.97-4.15.34-5.05,2.68-5.09,2.78l-.04.09c-.12.19-3.05,4.7-16.77.22-7.54-2.47-12.2-3.26-13.86-2.35-.02.01-.05.02-.08.04-.11.39-.56,2.24.29,3.45.49.69,1.35,1.06,2.56,1.11,5.85.22,16.4,6.97,17.58,7.74,3.49,2.27,9.37,2.65,9.43,2.66-.03,0,5.77-.74,10.44-1.81,3.32-.77,5.79-.48,7.97-.24,1,.11,1.95.22,2.91.22.73,0,1.24-.19,1.52-.57.43-.57.29-1.46.22-1.77-3.95-1.28-8.2-.64-12.28-.07-4.27.54-8.54,1.17-12.89,1.24-3.23-.05-6.62-1.05-9.12-3.13-2.57-2.06-11.25-7.79-14.32-6.3,3.07-1.56,11.9,4.01,14.53,6.03,2.49,1.99,5.76,2.88,8.91,2.87,4.27-.14,8.53-.85,12.78-1.47,4.28-.68,8.73-1.44,13.01-.04,0,0-.01.03-.03.08.39-.05,1.36-.23,1.84-.84.24-.3.32-.67.25-1.12-.19-1.23-3.9-2.5-7.01-3.17v.04ZM43.19,59.9c.34.43.32.93-.05,1.32-.23-.16-.36-.3-.46-.41-.35-.33-.31-.5-.84-.71.16-.6.98-.64,1.35-.2Z"/>
  <path class="cls-4" d="M6.67,38.28c.06.18.27.31.61.39.38.09.7.05.94-.11.39-.26.48-.78.48-.78l.39-3.71-2.17,3.38c-.11.15-.35.55-.25.83Z"/>
  <path class="cls-1" d="M28.9,9.3c4.07-1.38,8.71-2.37,14.01-2.77l1.29-1.38c-3.71-2.73-8.73-3.55-13.38-3.55-1.83,0-3.6.12-5.2.31-1.89.21-3.73.64-5.5,1.25,4.44,1.24,7.55,4.62,8.78,6.15Z"/>
  <path class="cls-1" d="M9.12,10.53c-.19.22-.38.44-.56.66C1.47,20.03.31,29.65,1.32,37.83c.82-2.83,2.61-7.67,6.16-12.72-1.04-6.44.39-11.66,1.64-14.58Z"/>
  <path class="cls-2" d="M59.77,37.68c-1.35,0-3.3,3.72-4.27,8.12-1.12,5.1-.59,7.89.05,9.33.21.47.6.8,1.09.93.49.12,1,.02,1.4-.29,1.35-1.04,3.04-2.87,4.17-7.83.98-4.32.86-7.8-.34-9.31-.5-.63-1.19-.94-2.09-.94ZM61.28,47.66c-.01.16-.04.31-.07.47-.26,1.1-1.5,5.88-3.33,5.45-2.06-.49-1.47-4.67-1.47-4.67l1.7-.6-1.43-.86s1.44-5.84,3.51-5.33c1.77.44,1.17,4.63,1.1,5.54Z"/>
  <path class="cls-3" d="M63.43,26.87s-2.18-8-4.39-8.28-4.13,4.49-4.1,4.62c.15.72,3.3-8.06,8.48,3.66Z"/>
  <path class="cls-3" d="M59.77,36.68c-2.6,0-4.57,5.83-5.25,8.91-1.18,5.36-.59,8.37.11,9.95.33.75.97,1.29,1.76,1.49.21.05.43.08.65.08.58,0,1.14-.19,1.61-.55,1.48-1.14,3.33-3.13,4.53-8.4.63-2.75,1.39-7.74-.53-10.15-.69-.87-1.66-1.31-2.88-1.31ZM62.2,47.92c-1.13,4.96-2.82,6.79-4.17,7.83-.4.31-.91.42-1.4.29-.49-.12-.89-.46-1.09-.93-.64-1.44-1.17-4.23-.05-9.33.97-4.4,2.92-8.12,4.27-8.12.91,0,1.59.31,2.09.94,1.2,1.5,1.33,4.98.34,9.31Z"/>
  <path class="cls-3" d="M60.18,42.11c-2.06-.52-3.51,5.33-3.51,5.33l1.43.86-1.7.6s-.59,4.19,1.47,4.67c1.83.43,3.07-4.35,3.33-5.45.04-.16.06-.31.07-.47.07-.91.67-5.1-1.1-5.54Z"/>
  <path class="cls-3" d="M55.54,36.73c4.4-1.87,8.93-2.39,9.34,3.66.08.62.09,1.25.14,1.88.24-1.24.34-2.54.1-3.83-.8-5.08-6.51-4.08-9.57-1.72Z"/>
  <path class="cls-3" d="M45.11,4.55C39.69.33,31.48.23,25.51.9c-6.98.79-13.44,4.31-17.73,9.66C-.23,20.56-.9,31.5.7,40.37c0,0,0,.03,0,.03h.01c1.67,9.28,5.8,16.28,6.58,17.52-.18.68-.57,2.71.46,4.17.67.96,1.8,1.48,3.35,1.54,4.53.17,12.87,4.84,17.08,7.58,3.72,2.42,9.66,2.8,10,2.81.06,0,5.92-.75,10.63-1.83,3.15-.73,5.43-.47,7.63-.22,1.03.12,2.01.23,3.02.23s1.84-.33,2.32-.97c.53-.71.53-1.63.46-2.21.61-.12,1.59-.42,2.18-1.15.42-.52.58-1.17.47-1.91-.33-2.13-5.21-3.44-7.73-3.98,14.59-9.93,9.55-35.23,8.88-38.27,7.36-6.55,11.22-12.58,6.36-20.55-4.5-7.38-24.55.3-27.26,1.38ZM25.62,1.9c1.6-.18,3.37-.31,5.2-.31,4.65,0,9.67.83,13.38,3.55l-1.29,1.38c-5.3.4-9.93,1.39-14.01,2.77-1.23-1.54-4.34-4.91-8.78-6.15,1.77-.61,3.62-1.03,5.5-1.25ZM8.56,11.19c.18-.23.37-.44.56-.66-1.25,2.92-2.67,8.15-1.64,14.58-3.55,5.05-5.34,9.89-6.16,12.72-1.01-8.18.15-17.79,7.24-26.64ZM63.87,66.13c.07.46-.01.82-.25,1.12-.49.6-1.46.78-1.84.84.02-.05.03-.08.03-.08-4.28-1.41-8.73-.64-13.01.04-4.25.62-8.51,1.32-12.78,1.47-3.15,0-6.42-.89-8.91-2.87-2.63-2.02-11.46-7.59-14.53-6.03,3.07-1.49,11.75,4.24,14.32,6.3,2.5,2.09,5.89,3.09,9.12,3.13,4.34-.07,8.62-.69,12.89-1.24,4.07-.57,8.32-1.21,12.28.07.07.31.21,1.2-.22,1.77-.28.38-.79.57-1.52.57-.96,0-1.9-.11-2.91-.22-2.18-.25-4.65-.53-7.97.24-4.66,1.08-10.47,1.81-10.44,1.81-.06,0-5.93-.39-9.43-2.66-1.18-.77-11.74-7.53-17.58-7.74-1.21-.04-2.08-.42-2.56-1.11-.85-1.2-.4-3.06-.29-3.45.02-.01.05-.02.08-.04,1.65-.9,6.32-.11,13.86,2.35,13.73,4.49,16.66-.02,16.77-.22l.04-.09c.04-.1.94-2.43,5.09-2.78,1.97-.17,3.89.59,5.03,1.97.78.95,1.74,1.88,4.2,2.75-5.34.01-11.46,1.86-15.41,3.64,3.42-.62,7.28-1.75,10.91-2.21,2.33-.3,4.77-.72,7.15-.66.28.07.56.13.86.2v-.04c3.12.67,6.83,1.93,7.02,3.17ZM55.72,61.7c-3.81-.98-4.94-2.01-5.8-3.06-1.36-1.65-3.56-2.52-5.88-2.33-4.47.37-5.72,2.88-5.92,3.36-.27.34-3.32,3.78-15.59-.24-11.39-3.72-13.64-2.82-14.56-2.33-1.03-1.71-4.69-8.21-6.25-16.72.44-2.31,6.56-30.33,41.41-32.88l7.93,1.48.12-.04c.95-.29,2-.6,2.85-.82-.41.67-.58,1.53-.43,2,.12.37.42.58.79.53.21-.03.53-.16,1.15-.4.48-.19,1.46-.57,2.04-.71-.15.2-.35.38-.54.56-.4.36-.81.74-.77,1.3.03.46.36.88,1.07,1.37,1.46,1,5.91,7.95,7.62,10.73l.03.14c.07.28,6.71,28.38-9.26,38.04Z"/>
  <path class="cls-3" d="M42.68,60.8c.11.12.24.25.46.41.37-.39.39-.89.05-1.32-.36-.44-1.18-.4-1.35.2.52.22.49.38.84.71Z"/>
  <path class="cls-3" d="M37.06,34.92c-1.52-.26-3.04.18-4.16,1.23-2.38,2.22-3.97,5.79-4.72,10.62-.52,3.33-.31,6.02.62,7.99.88,1.85,2.64,3.04,4.73,3.19.15.01.29.02.44.02,2,0,3.89-.99,4.99-2.66,2.29-3.44,5.55-10.33,1.7-17.77-.73-1.4-2.04-2.36-3.6-2.63ZM38.14,54.76c-.99,1.48-2.72,2.33-4.52,2.2-1.72-.12-3.18-1.11-3.9-2.62-.85-1.79-1.03-4.28-.54-7.41.72-4.6,2.21-7.98,4.42-10.04.72-.67,1.65-1.03,2.62-1.03.23,0,.45.02.68.06,1.25.22,2.3.98,2.88,2.1,3.44,6.63,1.01,12.77-1.64,16.75Z"/>
  <path class="cls-3" d="M30,37.18c2.97-3.47,7.72-4.84,10.9-.87.91,1.1,1.66,2.39,2.24,3.78-.19-1.5-.72-2.98-1.6-4.26-3.11-4.68-9.22-3.29-11.53,1.35Z"/>
  <path class="cls-3" d="M36.95,42.34c-2.99-.69-3.59,4.85-3.59,4.85l2.19,1.3-2.36.51s-.65,4.14,2.36,4.74c3.01.61,3.7-5.61,3.7-5.61,0,0,.69-5.11-2.29-5.8Z"/>
  <path class="cls-3" d="M39.31,14.46c-4.92-.69-10.55,12.3-10.55,12.3,1.99-2.13,7.62-16.17,15.24-5.89,0,0,.23-5.71-4.69-6.41Z"/>
  <path class="cls-3" d="M14.47,32.69s-.76.98-.46,1.82c.17.49.63.82,1.38.99.25.06.49.09.72.09.45,0,.85-.12,1.2-.35.82-.55.99-1.55,1-1.64l-.19-5.73-3.64,4.82ZM17.03,34.83c-.39.27-.91.33-1.52.19-.56-.13-.9-.36-1.02-.67-.17-.48.22-1.14.39-1.35l2.79-3.69.14,4.27s-.14.83-.78,1.26Z"/>
  <path class="cls-3" d="M10.18,47.19s-.76.98-.46,1.82c.17.49.63.82,1.38.99.25.06.49.09.72.09.45,0,.85-.12,1.2-.35.82-.55.99-1.55.99-1.6v-.03s-.71-6.88-.71-6.88l-3.12,5.96ZM12.73,49.33c-.39.26-.9.33-1.52.18-.56-.13-.9-.36-1.02-.67-.17-.48.22-1.14.41-1.39l2.37-4.53.54,5.16c-.03.15-.21.85-.78,1.23Z"/>
  <path class="cls-3" d="M6.52,37.16c-.05.07-.53.7-.32,1.29.12.35.45.59.97.71.17.04.34.06.5.06.32,0,.6-.08.84-.24.57-.38.69-1.08.7-1.13l.61-5.82-3.29,5.14ZM8.7,37.78s-.09.52-.48.78c-.24.16-.56.2-.94.11-.34-.08-.55-.21-.61-.39-.1-.28.14-.68.25-.83l2.17-3.38-.39,3.71Z"/>
</svg>