<?xml version="1.0" encoding="UTF-8"?>
<svg id="Layer_1" data-name="Layer 1" xmlns="http://www.w3.org/2000/svg" xmlns:xlink="http://www.w3.org/1999/xlink" viewBox="0 0 167.35 327.11">
  <defs>
    <style>
      .cls-1 {
        fill: #13bdc8;
      }

      .cls-1, .cls-2, .cls-3, .cls-4, .cls-5, .cls-6, .cls-7, .cls-8, .cls-9, .cls-10, .cls-11, .cls-12, .cls-13 {
        stroke-width: 0px;
      }

      .cls-14 {
        stroke: #7cacdc;
        stroke-width: .5px;
      }

      .cls-14, .cls-15, .cls-7, .cls-16 {
        fill: none;
      }

      .cls-2 {
        fill: #2fa0c2;
      }

      .cls-3 {
        fill: #f7e5d6;
      }

      .cls-15 {
        stroke: #fff;
        stroke-width: 1.25px;
      }

      .cls-4 {
        fill: #00b2db;
      }

      .cls-5 {
        fill: url(#Zigzag_Color);
      }

      .cls-6 {
        fill: #1e1717;
      }

      .cls-8 {
        fill: #d0fdff;
      }

      .cls-9 {
        fill: #fff;
      }

      .cls-10 {
        fill: #005e97;
      }

      .cls-11 {
        fill: url(#Waves_Smooth_Color);
      }

      .cls-16 {
        stroke: #74cdd5;
        stroke-linecap: square;
        stroke-width: 1.5px;
      }

      .cls-12 {
        fill: url(#Waves_Color);
      }

      .cls-13 {
        fill: #f7a21e;
      }
    </style>
    <pattern id="Waves_Color" data-name="Waves Color" x="0" y="0" width="50.74" height="58.5" patternTransform="translate(-600.77 -292.89)" patternUnits="userSpaceOnUse" viewBox="0 0 50.74 58.5">
      <g>
        <rect class="cls-7" x="0" width="50.74" height="58.5"/>
        <g>
          <path class="cls-15" d="M111.8,22.92c-1.97,2.34-5.96,4.59-17.29-5.53-4.96-4.43-9.06-4.79-11.45-3.28-1.49.94-2.15,2.91-1.82,3.94.55,1.72,2.11,2.3,3.33,1.45-1.12-.66-.65-2.24,1.02-1.92,2.44.47,2.21,3.72.85,5.34-1.97,2.34-5.96,4.59-17.29-5.53-4.96-4.43-9.06-4.79-11.46-3.28-1.49.94-2.15,2.91-1.82,3.94.55,1.72,2.11,2.3,3.33,1.45-1.12-.66-.65-2.24,1.02-1.92,2.44.47,2.21,3.72.85,5.34-1.97,2.34-5.97,4.59-17.29-5.53"/>
          <path class="cls-15" d="M102.97,36.89c-4.96-4.43-9.06-4.79-11.46-3.29-1.49.94-2.15,2.91-1.82,3.94.55,1.72,2.11,2.3,3.33,1.45-1.12-.66-.65-2.24,1.02-1.92,2.44.47,2.21,3.72.84,5.34-1.97,2.34-5.96,4.59-17.29-5.53-4.96-4.43-9.06-4.79-11.45-3.29-1.49.94-2.15,2.91-1.82,3.94.55,1.72,2.11,2.3,3.33,1.45-1.12-.66-.65-2.24,1.02-1.92,2.44.47,2.21,3.72.85,5.34-1.97,2.34-5.97,4.59-17.29-5.53-4.96-4.43-9.06-4.79-11.46-3.29"/>
          <path class="cls-15" d="M111.43,56.39c-4.96-4.43-9.06-4.79-11.45-3.29-1.49.94-2.15,2.91-1.82,3.94.55,1.72,2.11,2.3,3.33,1.45-1.12-.66-.65-2.24,1.02-1.92,2.44.47,2.21,3.72.85,5.34-1.97,2.34-5.97,4.59-17.29-5.53-4.96-4.43-9.06-4.79-11.46-3.29-1.49.94-2.15,2.91-1.82,3.94.55,1.72,2.11,2.3,3.33,1.45-1.12-.66-.65-2.24,1.02-1.92,2.44.47,2.21,3.72.85,5.34-1.97,2.34-5.96,4.59-17.29-5.53-4.96-4.43-9.06-4.79-11.46-3.29-1.49.94-2.15,2.91-1.82,3.94.55,1.72,2.11,2.3,3.33,1.45-1.12-.66-.65-2.24,1.02-1.92,2.44.47,2.21,3.72.84,5.34"/>
        </g>
        <g>
          <rect class="cls-4" width="50.74" height="58.5"/>
          <path class="cls-15" d="M61.06,22.92c-1.97,2.34-5.96,4.59-17.29-5.53-4.96-4.43-9.06-4.79-11.45-3.28-1.49.94-2.15,2.91-1.82,3.94.55,1.72,2.11,2.3,3.33,1.45-1.12-.66-.65-2.24,1.02-1.92,2.44.47,2.21,3.72.85,5.34-1.97,2.34-5.96,4.59-17.29-5.53-4.96-4.43-9.06-4.79-11.46-3.28-1.49.94-2.15,2.91-1.82,3.94.55,1.72,2.11,2.3,3.33,1.45-1.12-.66-.65-2.24,1.02-1.92,2.44.47,2.21,3.72.84,5.34-1.97,2.34-5.97,4.59-17.29-5.53"/>
          <path class="cls-15" d="M52.23,36.89c-4.96-4.43-9.06-4.79-11.45-3.29-1.49.94-2.15,2.91-1.82,3.94.55,1.72,2.11,2.3,3.33,1.45-1.12-.66-.65-2.24,1.02-1.92,2.44.47,2.21,3.72.84,5.34-1.97,2.34-5.96,4.59-17.29-5.53-4.96-4.43-9.06-4.79-11.45-3.29-1.49.94-2.15,2.91-1.82,3.94.55,1.72,2.11,2.3,3.33,1.45-1.12-.66-.65-2.24,1.02-1.92,2.44.47,2.21,3.72.85,5.34-1.97,2.34-5.97,4.59-17.29-5.53-4.96-4.43-9.06-4.79-11.46-3.29"/>
          <path class="cls-15" d="M60.69,56.39c-4.96-4.43-9.06-4.79-11.45-3.29-1.49.94-2.15,2.91-1.82,3.94.55,1.72,2.11,2.3,3.33,1.45-1.12-.66-.65-2.24,1.02-1.92,2.44.47,2.21,3.72.85,5.34-1.97,2.34-5.97,4.59-17.29-5.53-4.96-4.43-9.06-4.79-11.46-3.29-1.49.94-2.15,2.91-1.82,3.94.55,1.72,2.11,2.3,3.33,1.45-1.12-.66-.65-2.24,1.02-1.92,2.44.47,2.21,3.72.85,5.34-1.97,2.34-5.97,4.59-17.29-5.53-4.96-4.43-9.06-4.79-11.46-3.29-1.49.94-2.15,2.91-1.82,3.94.55,1.72,2.11,2.3,3.33,1.45-1.12-.66-.65-2.24,1.02-1.92,2.44.47,2.21,3.72.84,5.34"/>
        </g>
        <g>
          <path class="cls-15" d="M10.32,22.92c-1.97,2.34-5.96,4.59-17.29-5.53-4.96-4.43-9.06-4.79-11.45-3.28-1.49.94-2.15,2.91-1.82,3.94.55,1.72,2.11,2.3,3.33,1.45-1.12-.66-.65-2.24,1.02-1.92,2.44.47,2.21,3.72.85,5.34-1.97,2.34-5.96,4.59-17.29-5.53-4.96-4.43-9.06-4.79-11.46-3.28-1.49.94-2.15,2.91-1.82,3.94.55,1.72,2.11,2.3,3.33,1.45-1.12-.66-.65-2.24,1.02-1.92,2.44.47,2.21,3.72.84,5.34-1.97,2.34-5.97,4.59-17.29-5.53"/>
          <path class="cls-15" d="M1.49,36.89c-4.96-4.43-9.06-4.79-11.46-3.29-1.49.94-2.15,2.91-1.82,3.94.55,1.72,2.11,2.3,3.33,1.45-1.12-.66-.65-2.24,1.02-1.92,2.44.47,2.21,3.72.84,5.34-1.97,2.34-5.96,4.59-17.29-5.53-4.96-4.43-9.06-4.79-11.45-3.29-1.49.94-2.15,2.91-1.82,3.94.55,1.72,2.11,2.3,3.33,1.45-1.12-.66-.65-2.24,1.02-1.92,2.44.47,2.21,3.72.85,5.34-1.97,2.34-5.97,4.59-17.29-5.53-4.96-4.43-9.06-4.79-11.46-3.29"/>
          <path class="cls-15" d="M9.95,56.39c-4.96-4.43-9.06-4.79-11.45-3.29-1.49.94-2.15,2.91-1.82,3.94.55,1.72,2.11,2.3,3.33,1.45-1.12-.66-.65-2.24,1.02-1.92,2.44.47,2.21,3.72.85,5.34-1.97,2.34-5.97,4.59-17.29-5.53-4.96-4.43-9.06-4.79-11.46-3.29-1.49.94-2.15,2.91-1.82,3.94.55,1.72,2.11,2.3,3.33,1.45-1.12-.66-.65-2.24,1.02-1.92,2.44.47,2.21,3.72.85,5.34-1.97,2.34-5.97,4.59-17.29-5.53-4.96-4.43-9.06-4.79-11.46-3.29-1.49.94-2.15,2.91-1.82,3.94.55,1.72,2.11,2.3,3.33,1.45-1.13-.66-.65-2.24,1.02-1.92,2.44.47,2.21,3.72.84,5.34"/>
        </g>
        <path class="cls-15" d="M111.43-2.11c-4.96-4.43-9.06-4.79-11.45-3.29-1.49.94-2.15,2.91-1.82,3.94.55,1.72,2.11,2.3,3.33,1.45-1.12-.66-.65-2.24,1.02-1.92,2.44.47,2.21,3.72.85,5.34-1.97,2.34-5.97,4.59-17.29-5.53-4.96-4.43-9.06-4.79-11.46-3.29-1.49.94-2.15,2.91-1.82,3.94.55,1.72,2.11,2.3,3.33,1.45-1.12-.66-.65-2.24,1.02-1.92,2.44.47,2.21,3.72.85,5.34-1.97,2.34-5.96,4.59-17.29-5.53-4.96-4.43-9.06-4.79-11.46-3.29-1.49.94-2.15,2.91-1.82,3.94.55,1.72,2.11,2.3,3.33,1.45-1.12-.66-.65-2.24,1.02-1.92,2.44.47,2.21,3.72.84,5.34"/>
        <path class="cls-15" d="M60.69-2.11c-4.96-4.43-9.06-4.79-11.45-3.29-1.49.94-2.15,2.91-1.82,3.94.55,1.72,2.11,2.3,3.33,1.45-1.12-.66-.65-2.24,1.02-1.92,2.44.47,2.21,3.72.85,5.34-1.97,2.34-5.97,4.59-17.29-5.53-4.96-4.43-9.06-4.79-11.46-3.29-1.49.94-2.15,2.91-1.82,3.94.55,1.72,2.11,2.3,3.33,1.45-1.12-.66-.65-2.24,1.02-1.92,2.44.47,2.21,3.72.85,5.34-1.97,2.34-5.97,4.59-17.29-5.53C4.99-6.54.89-6.89-1.51-5.39c-1.49.94-2.15,2.91-1.82,3.94C-2.78.26-1.22.84,0,0c-1.12-.66-.65-2.24,1.02-1.92,2.44.47,2.21,3.72.84,5.34"/>
        <path class="cls-15" d="M9.95-2.11C4.99-6.54.89-6.89-1.5-5.39c-1.49.94-2.15,2.91-1.82,3.94C-2.78.26-1.22.84,0,0c-1.12-.66-.65-2.24,1.02-1.92,2.44.47,2.21,3.72.85,5.34C-.1,5.77-4.1,8.02-15.42-2.11c-4.96-4.43-9.06-4.79-11.46-3.29-1.49.94-2.15,2.91-1.82,3.94.55,1.72,2.11,2.3,3.33,1.45-1.12-.66-.65-2.24,1.02-1.92,2.44.47,2.21,3.72.85,5.34-1.97,2.34-5.97,4.59-17.29-5.53-4.96-4.43-9.06-4.79-11.46-3.29-1.49.94-2.15,2.91-1.82,3.94.55,1.72,2.11,2.3,3.33,1.45-1.13-.66-.65-2.24,1.02-1.92,2.44.47,2.21,3.72.84,5.34"/>
      </g>
    </pattern>
    <pattern id="Waves_Smooth_Color" data-name="Waves Smooth Color" x="0" y="0" width="109.12" height="103.21" patternTransform="translate(-600.77 -292.89)" patternUnits="userSpaceOnUse" viewBox="0 0 109.12 103.21">
      <g>
        <rect class="cls-7" y="0" width="109.12" height="103.21"/>
        <g>
          <path class="cls-16" d="M218.25,96.5c-6.18,0-10.82-1.3-13.64-2.13-2.82-.82-7.47-2.13-13.64-2.13s-10.82,1.3-13.64,2.13c-2.82.82-7.47,2.13-13.64,2.13s-10.82-1.3-13.64-2.13c-2.82-.82-7.47-2.13-13.64-2.13s-10.82,1.3-13.64,2.13c-2.82.82-7.47,2.13-13.64,2.13"/>
          <path class="cls-16" d="M218.25,100.8c-6.18,0-10.82-1.3-13.64-2.13-2.82-.82-7.47-2.13-13.64-2.13s-10.82,1.3-13.64,2.13-7.47,2.13-13.64,2.13-10.82-1.3-13.64-2.13c-2.82-.82-7.47-2.13-13.64-2.13s-10.82,1.3-13.64,2.13c-2.82.82-7.47,2.13-13.64,2.13"/>
          <path class="cls-16" d="M218.25,105.1c-6.18,0-10.82-1.3-13.64-2.13-2.82-.82-7.47-2.13-13.64-2.13s-10.82,1.31-13.64,2.13c-2.82.82-7.47,2.13-13.64,2.13s-10.82-1.3-13.64-2.13c-2.82-.82-7.47-2.13-13.64-2.13s-10.82,1.31-13.64,2.13c-2.82.82-7.47,2.13-13.64,2.13"/>
        </g>
        <g>
          <rect class="cls-1" y="90.31" width="109.12" height="25.8"/>
          <path class="cls-16" d="M109.12,96.5c-6.18,0-10.82-1.3-13.64-2.13-2.82-.82-7.47-2.13-13.64-2.13s-10.82,1.3-13.64,2.13c-2.82.82-7.47,2.13-13.64,2.13s-10.82-1.3-13.64-2.13c-2.82-.82-7.47-2.13-13.64-2.13s-10.82,1.3-13.64,2.13c-2.82.82-7.47,2.13-13.64,2.13"/>
          <path class="cls-16" d="M109.12,100.8c-6.18,0-10.82-1.3-13.64-2.13-2.82-.82-7.47-2.13-13.64-2.13s-10.82,1.3-13.64,2.13-7.47,2.13-13.64,2.13-10.82-1.3-13.64-2.13c-2.82-.82-7.47-2.13-13.64-2.13s-10.82,1.3-13.64,2.13c-2.82.82-7.47,2.13-13.64,2.13"/>
          <path class="cls-16" d="M109.12,105.1c-6.18,0-10.82-1.3-13.64-2.13-2.82-.82-7.47-2.13-13.64-2.13s-10.82,1.31-13.64,2.13c-2.82.82-7.47,2.13-13.64,2.13s-10.82-1.3-13.64-2.13c-2.82-.82-7.47-2.13-13.64-2.13s-10.82,1.31-13.64,2.13c-2.82.82-7.47,2.13-13.64,2.13"/>
        </g>
        <g>
          <path class="cls-16" d="M0,96.5c-6.18,0-10.82-1.3-13.64-2.13-2.82-.82-7.47-2.13-13.64-2.13s-10.82,1.3-13.64,2.13c-2.82.82-7.47,2.13-13.64,2.13s-10.82-1.3-13.64-2.13c-2.82-.82-7.47-2.13-13.64-2.13s-10.82,1.3-13.64,2.13c-2.82.82-7.47,2.13-13.64,2.13"/>
          <path class="cls-16" d="M0,100.8c-6.18,0-10.82-1.3-13.64-2.13-2.82-.82-7.47-2.13-13.64-2.13s-10.82,1.3-13.64,2.13-7.47,2.13-13.64,2.13-10.82-1.3-13.64-2.13c-2.82-.82-7.47-2.13-13.64-2.13s-10.82,1.3-13.64,2.13c-2.82.82-7.47,2.13-13.64,2.13"/>
          <path class="cls-16" d="M0,105.1c-6.18,0-10.82-1.3-13.64-2.13-2.82-.82-7.47-2.13-13.64-2.13s-10.82,1.31-13.64,2.13c-2.82.82-7.47,2.13-13.64,2.13s-10.82-1.3-13.64-2.13c-2.82-.82-7.47-2.13-13.64-2.13s-10.82,1.31-13.64,2.13c-2.82.82-7.47,2.13-13.64,2.13"/>
        </g>
        <g>
          <path class="cls-16" d="M218.25,83.6c-6.18,0-10.82-1.31-13.64-2.13-2.82-.82-7.47-2.13-13.64-2.13s-10.82,1.31-13.64,2.13c-2.82.82-7.47,2.13-13.64,2.13s-10.82-1.31-13.64-2.13c-2.82-.82-7.47-2.13-13.64-2.13s-10.82,1.31-13.64,2.13c-2.82.82-7.47,2.13-13.64,2.13"/>
          <path class="cls-16" d="M218.25,87.9c-6.18,0-10.82-1.31-13.64-2.13-2.82-.82-7.47-2.13-13.64-2.13s-10.82,1.3-13.64,2.13c-2.82.82-7.47,2.13-13.64,2.13s-10.82-1.31-13.64-2.13c-2.82-.82-7.47-2.13-13.64-2.13s-10.82,1.3-13.64,2.13c-2.82.82-7.47,2.13-13.64,2.13"/>
          <path class="cls-16" d="M218.25,92.2c-6.18,0-10.82-1.3-13.64-2.13-2.82-.82-7.47-2.13-13.64-2.13s-10.82,1.3-13.64,2.13-7.47,2.13-13.64,2.13-10.82-1.3-13.64-2.13c-2.82-.82-7.47-2.13-13.64-2.13s-10.82,1.3-13.64,2.13c-2.82.82-7.47,2.13-13.64,2.13"/>
          <path class="cls-16" d="M218.25,70.7c-6.18,0-10.82-1.3-13.64-2.13-2.82-.82-7.47-2.13-13.64-2.13s-10.82,1.3-13.64,2.13-7.47,2.13-13.64,2.13-10.82-1.3-13.64-2.13c-2.82-.82-7.47-2.13-13.64-2.13s-10.82,1.3-13.64,2.13c-2.82.82-7.47,2.13-13.64,2.13"/>
          <path class="cls-16" d="M218.25,75c-6.18,0-10.82-1.3-13.64-2.13-2.82-.82-7.47-2.13-13.64-2.13s-10.82,1.3-13.64,2.13c-2.82.82-7.47,2.13-13.64,2.13s-10.82-1.3-13.64-2.13c-2.82-.82-7.47-2.13-13.64-2.13s-10.82,1.3-13.64,2.13c-2.82.82-7.47,2.13-13.64,2.13"/>
          <path class="cls-16" d="M218.25,79.3c-6.18,0-10.82-1.3-13.64-2.13-2.82-.82-7.47-2.13-13.64-2.13s-10.82,1.31-13.64,2.13c-2.82.82-7.47,2.13-13.64,2.13s-10.82-1.3-13.64-2.13c-2.82-.82-7.47-2.13-13.64-2.13s-10.82,1.31-13.64,2.13c-2.82.82-7.47,2.13-13.64,2.13"/>
        </g>
        <g>
          <rect class="cls-1" y="64.51" width="109.12" height="25.8"/>
          <path class="cls-16" d="M109.12,83.6c-6.18,0-10.82-1.31-13.64-2.13-2.82-.82-7.47-2.13-13.64-2.13s-10.82,1.31-13.64,2.13c-2.82.82-7.47,2.13-13.64,2.13s-10.82-1.31-13.64-2.13c-2.82-.82-7.47-2.13-13.64-2.13s-10.82,1.31-13.64,2.13c-2.82.82-7.47,2.13-13.64,2.13"/>
          <path class="cls-16" d="M109.12,87.9c-6.18,0-10.82-1.31-13.64-2.13-2.82-.82-7.47-2.13-13.64-2.13s-10.82,1.3-13.64,2.13c-2.82.82-7.47,2.13-13.64,2.13s-10.82-1.31-13.64-2.13c-2.82-.82-7.47-2.13-13.64-2.13s-10.82,1.3-13.64,2.13c-2.82.82-7.47,2.13-13.64,2.13"/>
          <path class="cls-16" d="M109.12,92.2c-6.18,0-10.82-1.3-13.64-2.13-2.82-.82-7.47-2.13-13.64-2.13s-10.82,1.3-13.64,2.13-7.47,2.13-13.64,2.13-10.82-1.3-13.64-2.13c-2.82-.82-7.47-2.13-13.64-2.13s-10.82,1.3-13.64,2.13c-2.82.82-7.47,2.13-13.64,2.13"/>
          <path class="cls-16" d="M109.12,70.7c-6.18,0-10.82-1.3-13.64-2.13-2.82-.82-7.47-2.13-13.64-2.13s-10.82,1.3-13.64,2.13-7.47,2.13-13.64,2.13-10.82-1.3-13.64-2.13c-2.82-.82-7.47-2.13-13.64-2.13s-10.82,1.3-13.64,2.13c-2.82.82-7.47,2.13-13.64,2.13"/>
          <path class="cls-16" d="M109.12,75c-6.18,0-10.82-1.3-13.64-2.13-2.82-.82-7.47-2.13-13.64-2.13s-10.82,1.3-13.64,2.13c-2.82.82-7.47,2.13-13.64,2.13s-10.82-1.3-13.64-2.13c-2.82-.82-7.47-2.13-13.64-2.13s-10.82,1.3-13.64,2.13c-2.82.82-7.47,2.13-13.64,2.13"/>
          <path class="cls-16" d="M109.12,79.3c-6.18,0-10.82-1.3-13.64-2.13-2.82-.82-7.47-2.13-13.64-2.13s-10.82,1.31-13.64,2.13c-2.82.82-7.47,2.13-13.64,2.13s-10.82-1.3-13.64-2.13c-2.82-.82-7.47-2.13-13.64-2.13s-10.82,1.31-13.64,2.13c-2.82.82-7.47,2.13-13.64,2.13"/>
        </g>
        <g>
          <path class="cls-16" d="M0,83.6c-6.18,0-10.82-1.31-13.64-2.13-2.82-.82-7.47-2.13-13.64-2.13s-10.82,1.31-13.64,2.13c-2.82.82-7.47,2.13-13.64,2.13s-10.82-1.31-13.64-2.13c-2.82-.82-7.47-2.13-13.64-2.13s-10.82,1.31-13.64,2.13c-2.82.82-7.47,2.13-13.64,2.13"/>
          <path class="cls-16" d="M0,87.9c-6.18,0-10.82-1.31-13.64-2.13-2.82-.82-7.47-2.13-13.64-2.13s-10.82,1.3-13.64,2.13c-2.82.82-7.47,2.13-13.64,2.13s-10.82-1.31-13.64-2.13c-2.82-.82-7.47-2.13-13.64-2.13s-10.82,1.3-13.64,2.13c-2.82.82-7.47,2.13-13.64,2.13"/>
          <path class="cls-16" d="M0,92.2c-6.18,0-10.82-1.3-13.64-2.13-2.82-.82-7.47-2.13-13.64-2.13s-10.82,1.3-13.64,2.13-7.47,2.13-13.64,2.13-10.82-1.3-13.64-2.13c-2.82-.82-7.47-2.13-13.64-2.13s-10.82,1.3-13.64,2.13c-2.82.82-7.47,2.13-13.64,2.13"/>
          <path class="cls-16" d="M0,70.7c-6.18,0-10.82-1.3-13.64-2.13-2.82-.82-7.47-2.13-13.64-2.13s-10.82,1.3-13.64,2.13-7.47,2.13-13.64,2.13-10.82-1.3-13.64-2.13c-2.82-.82-7.47-2.13-13.64-2.13s-10.82,1.3-13.64,2.13c-2.82.82-7.47,2.13-13.64,2.13"/>
          <path class="cls-16" d="M0,75c-6.18,0-10.82-1.3-13.64-2.13-2.82-.82-7.47-2.13-13.64-2.13s-10.82,1.3-13.64,2.13c-2.82.82-7.47,2.13-13.64,2.13s-10.82-1.3-13.64-2.13c-2.82-.82-7.47-2.13-13.64-2.13s-10.82,1.3-13.64,2.13c-2.82.82-7.47,2.13-13.64,2.13"/>
          <path class="cls-16" d="M0,79.3c-6.18,0-10.82-1.3-13.64-2.13-2.82-.82-7.47-2.13-13.64-2.13s-10.82,1.31-13.64,2.13c-2.82.82-7.47,2.13-13.64,2.13s-10.82-1.3-13.64-2.13c-2.82-.82-7.47-2.13-13.64-2.13s-10.82,1.31-13.64,2.13c-2.82.82-7.47,2.13-13.64,2.13"/>
        </g>
        <g>
          <path class="cls-16" d="M218.25,57.8c-6.18,0-10.82-1.31-13.64-2.13-2.82-.82-7.47-2.13-13.64-2.13s-10.82,1.31-13.64,2.13c-2.82.82-7.47,2.13-13.64,2.13s-10.82-1.31-13.64-2.13c-2.82-.82-7.47-2.13-13.64-2.13s-10.82,1.31-13.64,2.13c-2.82.82-7.47,2.13-13.64,2.13"/>
          <path class="cls-16" d="M218.25,62.1c-6.18,0-10.82-1.31-13.64-2.13-2.82-.82-7.47-2.13-13.64-2.13s-10.82,1.3-13.64,2.13c-2.82.82-7.47,2.13-13.64,2.13s-10.82-1.31-13.64-2.13c-2.82-.82-7.47-2.13-13.64-2.13s-10.82,1.3-13.64,2.13c-2.82.82-7.47,2.13-13.64,2.13"/>
          <path class="cls-16" d="M218.25,66.4c-6.18,0-10.82-1.3-13.64-2.13-2.82-.82-7.47-2.13-13.64-2.13s-10.82,1.3-13.64,2.13-7.47,2.13-13.64,2.13-10.82-1.3-13.64-2.13c-2.82-.82-7.47-2.13-13.64-2.13s-10.82,1.3-13.64,2.13c-2.82.82-7.47,2.13-13.64,2.13"/>
          <path class="cls-16" d="M218.25,44.9c-6.18,0-10.82-1.3-13.64-2.13-2.82-.82-7.47-2.13-13.64-2.13s-10.82,1.3-13.64,2.13c-2.82.82-7.47,2.13-13.64,2.13s-10.82-1.3-13.64-2.13c-2.82-.82-7.47-2.13-13.64-2.13s-10.82,1.3-13.64,2.13c-2.82.82-7.47,2.13-13.64,2.13"/>
          <path class="cls-16" d="M218.25,49.2c-6.18,0-10.82-1.3-13.64-2.13-2.82-.82-7.47-2.13-13.64-2.13s-10.82,1.3-13.64,2.13c-2.82.82-7.47,2.13-13.64,2.13s-10.82-1.3-13.64-2.13c-2.82-.82-7.47-2.13-13.64-2.13s-10.82,1.3-13.64,2.13c-2.82.82-7.47,2.13-13.64,2.13"/>
          <path class="cls-16" d="M218.25,53.5c-6.18,0-10.82-1.3-13.64-2.13-2.82-.82-7.47-2.13-13.64-2.13s-10.82,1.31-13.64,2.13c-2.82.82-7.47,2.13-13.64,2.13s-10.82-1.3-13.64-2.13c-2.82-.82-7.47-2.13-13.64-2.13s-10.82,1.31-13.64,2.13c-2.82.82-7.47,2.13-13.64,2.13"/>
        </g>
        <g>
          <rect class="cls-1" y="38.71" width="109.12" height="25.8"/>
          <path class="cls-16" d="M109.12,57.8c-6.18,0-10.82-1.31-13.64-2.13-2.82-.82-7.47-2.13-13.64-2.13s-10.82,1.31-13.64,2.13c-2.82.82-7.47,2.13-13.64,2.13s-10.82-1.31-13.64-2.13c-2.82-.82-7.47-2.13-13.64-2.13s-10.82,1.31-13.64,2.13c-2.82.82-7.47,2.13-13.64,2.13"/>
          <path class="cls-16" d="M109.12,62.1c-6.18,0-10.82-1.31-13.64-2.13-2.82-.82-7.47-2.13-13.64-2.13s-10.82,1.3-13.64,2.13c-2.82.82-7.47,2.13-13.64,2.13s-10.82-1.31-13.64-2.13c-2.82-.82-7.47-2.13-13.64-2.13s-10.82,1.3-13.64,2.13c-2.82.82-7.47,2.13-13.64,2.13"/>
          <path class="cls-16" d="M109.12,66.4c-6.18,0-10.82-1.3-13.64-2.13-2.82-.82-7.47-2.13-13.64-2.13s-10.82,1.3-13.64,2.13-7.47,2.13-13.64,2.13-10.82-1.3-13.64-2.13c-2.82-.82-7.47-2.13-13.64-2.13s-10.82,1.3-13.64,2.13c-2.82.82-7.47,2.13-13.64,2.13"/>
          <path class="cls-16" d="M109.12,44.9c-6.18,0-10.82-1.3-13.64-2.13-2.82-.82-7.47-2.13-13.64-2.13s-10.82,1.3-13.64,2.13c-2.82.82-7.47,2.13-13.64,2.13s-10.82-1.3-13.64-2.13c-2.82-.82-7.47-2.13-13.64-2.13s-10.82,1.3-13.64,2.13c-2.82.82-7.47,2.13-13.64,2.13"/>
          <path class="cls-16" d="M109.12,49.2c-6.18,0-10.82-1.3-13.64-2.13-2.82-.82-7.47-2.13-13.64-2.13s-10.82,1.3-13.64,2.13c-2.82.82-7.47,2.13-13.64,2.13s-10.82-1.3-13.64-2.13c-2.82-.82-7.47-2.13-13.64-2.13s-10.82,1.3-13.64,2.13c-2.82.82-7.47,2.13-13.64,2.13"/>
          <path class="cls-16" d="M109.12,53.5c-6.18,0-10.82-1.3-13.64-2.13-2.82-.82-7.47-2.13-13.64-2.13s-10.82,1.31-13.64,2.13c-2.82.82-7.47,2.13-13.64,2.13s-10.82-1.3-13.64-2.13c-2.82-.82-7.47-2.13-13.64-2.13s-10.82,1.31-13.64,2.13c-2.82.82-7.47,2.13-13.64,2.13"/>
        </g>
        <g>
          <path class="cls-16" d="M0,57.8c-6.18,0-10.82-1.31-13.64-2.13-2.82-.82-7.47-2.13-13.64-2.13s-10.82,1.31-13.64,2.13c-2.82.82-7.47,2.13-13.64,2.13s-10.82-1.31-13.64-2.13c-2.82-.82-7.47-2.13-13.64-2.13s-10.82,1.31-13.64,2.13c-2.82.82-7.47,2.13-13.64,2.13"/>
          <path class="cls-16" d="M0,62.1c-6.18,0-10.82-1.31-13.64-2.13-2.82-.82-7.47-2.13-13.64-2.13s-10.82,1.3-13.64,2.13c-2.82.82-7.47,2.13-13.64,2.13s-10.82-1.31-13.64-2.13c-2.82-.82-7.47-2.13-13.64-2.13s-10.82,1.3-13.64,2.13c-2.82.82-7.47,2.13-13.64,2.13"/>
          <path class="cls-16" d="M0,66.4c-6.18,0-10.82-1.3-13.64-2.13-2.82-.82-7.47-2.13-13.64-2.13s-10.82,1.3-13.64,2.13-7.47,2.13-13.64,2.13-10.82-1.3-13.64-2.13c-2.82-.82-7.47-2.13-13.64-2.13s-10.82,1.3-13.64,2.13c-2.82.82-7.47,2.13-13.64,2.13"/>
          <path class="cls-16" d="M0,44.9c-6.18,0-10.82-1.3-13.64-2.13-2.82-.82-7.47-2.13-13.64-2.13s-10.82,1.3-13.64,2.13c-2.82.82-7.47,2.13-13.64,2.13s-10.82-1.3-13.64-2.13c-2.82-.82-7.47-2.13-13.64-2.13s-10.82,1.3-13.64,2.13c-2.82.82-7.47,2.13-13.64,2.13"/>
          <path class="cls-16" d="M0,49.2c-6.18,0-10.82-1.3-13.64-2.13-2.82-.82-7.47-2.13-13.64-2.13s-10.82,1.3-13.64,2.13c-2.82.82-7.47,2.13-13.64,2.13s-10.82-1.3-13.64-2.13c-2.82-.82-7.47-2.13-13.64-2.13s-10.82,1.3-13.64,2.13c-2.82.82-7.47,2.13-13.64,2.13"/>
          <path class="cls-16" d="M0,53.5c-6.18,0-10.82-1.3-13.64-2.13-2.82-.82-7.47-2.13-13.64-2.13s-10.82,1.31-13.64,2.13c-2.82.82-7.47,2.13-13.64,2.13s-10.82-1.3-13.64-2.13c-2.82-.82-7.47-2.13-13.64-2.13s-10.82,1.31-13.64,2.13c-2.82.82-7.47,2.13-13.64,2.13"/>
        </g>
        <g>
          <path class="cls-16" d="M218.25,31.99c-6.18,0-10.82-1.31-13.64-2.13-2.82-.82-7.47-2.13-13.64-2.13s-10.82,1.31-13.64,2.13c-2.82.82-7.47,2.13-13.64,2.13s-10.82-1.31-13.64-2.13c-2.82-.82-7.47-2.13-13.64-2.13s-10.82,1.31-13.64,2.13c-2.82.82-7.47,2.13-13.64,2.13"/>
          <path class="cls-16" d="M218.25,36.29c-6.18,0-10.82-1.31-13.64-2.13-2.82-.82-7.47-2.13-13.64-2.13s-10.82,1.3-13.64,2.13c-2.82.82-7.47,2.13-13.64,2.13s-10.82-1.31-13.64-2.13c-2.82-.82-7.47-2.13-13.64-2.13s-10.82,1.3-13.64,2.13c-2.82.82-7.47,2.13-13.64,2.13"/>
          <path class="cls-16" d="M218.25,40.6c-6.18,0-10.82-1.3-13.64-2.13-2.82-.82-7.47-2.13-13.64-2.13s-10.82,1.3-13.64,2.13c-2.82.82-7.47,2.13-13.64,2.13s-10.82-1.3-13.64-2.13c-2.82-.82-7.47-2.13-13.64-2.13s-10.82,1.3-13.64,2.13c-2.82.82-7.47,2.13-13.64,2.13"/>
          <path class="cls-16" d="M218.25,19.09c-6.18,0-10.82-1.3-13.64-2.13-2.82-.82-7.47-2.13-13.64-2.13s-10.82,1.3-13.64,2.13c-2.82.82-7.47,2.13-13.64,2.13s-10.82-1.3-13.64-2.13c-2.82-.82-7.47-2.13-13.64-2.13s-10.82,1.3-13.64,2.13c-2.82.82-7.47,2.13-13.64,2.13"/>
          <path class="cls-16" d="M218.25,23.39c-6.18,0-10.82-1.3-13.64-2.13-2.82-.82-7.47-2.13-13.64-2.13s-10.82,1.3-13.64,2.13c-2.82.82-7.47,2.13-13.64,2.13s-10.82-1.3-13.64-2.13c-2.82-.82-7.47-2.13-13.64-2.13s-10.82,1.3-13.64,2.13c-2.82.82-7.47,2.13-13.64,2.13"/>
          <path class="cls-16" d="M218.25,27.69c-6.18,0-10.82-1.3-13.64-2.13-2.82-.82-7.47-2.13-13.64-2.13s-10.82,1.31-13.64,2.13c-2.82.82-7.47,2.13-13.64,2.13s-10.82-1.3-13.64-2.13c-2.82-.82-7.47-2.13-13.64-2.13s-10.82,1.31-13.64,2.13c-2.82.82-7.47,2.13-13.64,2.13"/>
        </g>
        <g>
          <rect class="cls-1" y="12.9" width="109.12" height="25.8"/>
          <path class="cls-16" d="M109.12,31.99c-6.18,0-10.82-1.31-13.64-2.13-2.82-.82-7.47-2.13-13.64-2.13s-10.82,1.31-13.64,2.13c-2.82.82-7.47,2.13-13.64,2.13s-10.82-1.31-13.64-2.13c-2.82-.82-7.47-2.13-13.64-2.13s-10.82,1.31-13.64,2.13c-2.82.82-7.47,2.13-13.64,2.13"/>
          <path class="cls-16" d="M109.12,36.29c-6.18,0-10.82-1.31-13.64-2.13-2.82-.82-7.47-2.13-13.64-2.13s-10.82,1.3-13.64,2.13c-2.82.82-7.47,2.13-13.64,2.13s-10.82-1.31-13.64-2.13c-2.82-.82-7.47-2.13-13.64-2.13s-10.82,1.3-13.64,2.13c-2.82.82-7.47,2.13-13.64,2.13"/>
          <path class="cls-16" d="M109.12,40.6c-6.18,0-10.82-1.3-13.64-2.13-2.82-.82-7.47-2.13-13.64-2.13s-10.82,1.3-13.64,2.13c-2.82.82-7.47,2.13-13.64,2.13s-10.82-1.3-13.64-2.13c-2.82-.82-7.47-2.13-13.64-2.13s-10.82,1.3-13.64,2.13c-2.82.82-7.47,2.13-13.64,2.13"/>
          <path class="cls-16" d="M109.12,19.09c-6.18,0-10.82-1.3-13.64-2.13-2.82-.82-7.47-2.13-13.64-2.13s-10.82,1.3-13.64,2.13c-2.82.82-7.47,2.13-13.64,2.13s-10.82-1.3-13.64-2.13c-2.82-.82-7.47-2.13-13.64-2.13s-10.82,1.3-13.64,2.13c-2.82.82-7.47,2.13-13.64,2.13"/>
          <path class="cls-16" d="M109.12,23.39c-6.18,0-10.82-1.3-13.64-2.13-2.82-.82-7.47-2.13-13.64-2.13s-10.82,1.3-13.64,2.13c-2.82.82-7.47,2.13-13.64,2.13s-10.82-1.3-13.64-2.13c-2.82-.82-7.47-2.13-13.64-2.13s-10.82,1.3-13.64,2.13c-2.82.82-7.47,2.13-13.64,2.13"/>
          <path class="cls-16" d="M109.12,27.69c-6.18,0-10.82-1.3-13.64-2.13-2.82-.82-7.47-2.13-13.64-2.13s-10.82,1.31-13.64,2.13c-2.82.82-7.47,2.13-13.64,2.13s-10.82-1.3-13.64-2.13c-2.82-.82-7.47-2.13-13.64-2.13s-10.82,1.31-13.64,2.13c-2.82.82-7.47,2.13-13.64,2.13"/>
        </g>
        <g>
          <path class="cls-16" d="M0,31.99c-6.18,0-10.82-1.31-13.64-2.13-2.82-.82-7.47-2.13-13.64-2.13s-10.82,1.31-13.64,2.13c-2.82.82-7.47,2.13-13.64,2.13s-10.82-1.31-13.64-2.13c-2.82-.82-7.47-2.13-13.64-2.13s-10.82,1.31-13.64,2.13c-2.82.82-7.47,2.13-13.64,2.13"/>
          <path class="cls-16" d="M0,36.29c-6.18,0-10.82-1.31-13.64-2.13-2.82-.82-7.47-2.13-13.64-2.13s-10.82,1.3-13.64,2.13c-2.82.82-7.47,2.13-13.64,2.13s-10.82-1.31-13.64-2.13c-2.82-.82-7.47-2.13-13.64-2.13s-10.82,1.3-13.64,2.13c-2.82.82-7.47,2.13-13.64,2.13"/>
          <path class="cls-16" d="M0,40.6c-6.18,0-10.82-1.3-13.64-2.13-2.82-.82-7.47-2.13-13.64-2.13s-10.82,1.3-13.64,2.13c-2.82.82-7.47,2.13-13.64,2.13s-10.82-1.3-13.64-2.13c-2.82-.82-7.47-2.13-13.64-2.13s-10.82,1.3-13.64,2.13c-2.82.82-7.47,2.13-13.64,2.13"/>
          <path class="cls-16" d="M0,19.09c-6.18,0-10.82-1.3-13.64-2.13-2.82-.82-7.47-2.13-13.64-2.13s-10.82,1.3-13.64,2.13c-2.82.82-7.47,2.13-13.64,2.13s-10.82-1.3-13.64-2.13c-2.82-.82-7.47-2.13-13.64-2.13s-10.82,1.3-13.64,2.13c-2.82.82-7.47,2.13-13.64,2.13"/>
          <path class="cls-16" d="M0,23.39c-6.18,0-10.82-1.3-13.64-2.13-2.82-.82-7.47-2.13-13.64-2.13s-10.82,1.3-13.64,2.13c-2.82.82-7.47,2.13-13.64,2.13s-10.82-1.3-13.64-2.13c-2.82-.82-7.47-2.13-13.64-2.13s-10.82,1.3-13.64,2.13c-2.82.82-7.47,2.13-13.64,2.13"/>
          <path class="cls-16" d="M0,27.69c-6.18,0-10.82-1.3-13.64-2.13-2.82-.82-7.47-2.13-13.64-2.13s-10.82,1.31-13.64,2.13c-2.82.82-7.47,2.13-13.64,2.13s-10.82-1.3-13.64-2.13c-2.82-.82-7.47-2.13-13.64-2.13s-10.82,1.31-13.64,2.13c-2.82.82-7.47,2.13-13.64,2.13"/>
        </g>
        <g>
          <path class="cls-16" d="M218.25,6.19c-6.18,0-10.82-1.31-13.64-2.13-2.82-.82-7.47-2.13-13.64-2.13s-10.82,1.31-13.64,2.13c-2.82.82-7.47,2.13-13.64,2.13s-10.82-1.31-13.64-2.13c-2.82-.82-7.47-2.13-13.64-2.13s-10.82,1.31-13.64,2.13c-2.82.82-7.47,2.13-13.64,2.13"/>
          <path class="cls-16" d="M218.25,10.49c-6.18,0-10.82-1.31-13.64-2.13-2.82-.82-7.47-2.13-13.64-2.13s-10.82,1.3-13.64,2.13c-2.82.82-7.47,2.13-13.64,2.13s-10.82-1.31-13.64-2.13c-2.82-.82-7.47-2.13-13.64-2.13s-10.82,1.3-13.64,2.13c-2.82.82-7.47,2.13-13.64,2.13"/>
          <path class="cls-16" d="M218.25,14.79c-6.18,0-10.82-1.3-13.64-2.13-2.82-.82-7.47-2.13-13.64-2.13s-10.82,1.3-13.64,2.13c-2.82.82-7.47,2.13-13.64,2.13s-10.82-1.3-13.64-2.13c-2.82-.82-7.47-2.13-13.64-2.13s-10.82,1.3-13.64,2.13c-2.82.82-7.47,2.13-13.64,2.13"/>
          <path class="cls-16" d="M218.25,1.89c-6.18,0-10.82-1.3-13.64-2.13-2.82-.82-7.47-2.13-13.64-2.13s-10.82,1.31-13.64,2.13c-2.82.82-7.47,2.13-13.64,2.13s-10.82-1.3-13.64-2.13c-2.82-.82-7.47-2.13-13.64-2.13s-10.82,1.31-13.64,2.13c-2.82.82-7.47,2.13-13.64,2.13"/>
        </g>
        <g>
          <rect class="cls-1" y="-12.9" width="109.12" height="25.8"/>
          <path class="cls-16" d="M109.12,6.19c-6.18,0-10.82-1.31-13.64-2.13-2.82-.82-7.47-2.13-13.64-2.13s-10.82,1.31-13.64,2.13c-2.82.82-7.47,2.13-13.64,2.13s-10.82-1.31-13.64-2.13c-2.82-.82-7.47-2.13-13.64-2.13s-10.82,1.31-13.64,2.13c-2.82.82-7.47,2.13-13.64,2.13"/>
          <path class="cls-16" d="M109.12,10.49c-6.18,0-10.82-1.31-13.64-2.13-2.82-.82-7.47-2.13-13.64-2.13s-10.82,1.3-13.64,2.13c-2.82.82-7.47,2.13-13.64,2.13s-10.82-1.31-13.64-2.13c-2.82-.82-7.47-2.13-13.64-2.13s-10.82,1.3-13.64,2.13c-2.82.82-7.47,2.13-13.64,2.13"/>
          <path class="cls-16" d="M109.12,14.79c-6.18,0-10.82-1.3-13.64-2.13-2.82-.82-7.47-2.13-13.64-2.13s-10.82,1.3-13.64,2.13c-2.82.82-7.47,2.13-13.64,2.13s-10.82-1.3-13.64-2.13c-2.82-.82-7.47-2.13-13.64-2.13s-10.82,1.3-13.64,2.13c-2.82.82-7.47,2.13-13.64,2.13"/>
          <path class="cls-16" d="M109.12,1.89c-6.18,0-10.82-1.3-13.64-2.13-2.82-.82-7.47-2.13-13.64-2.13s-10.82,1.31-13.64,2.13c-2.82.82-7.47,2.13-13.64,2.13S43.74.58,40.92-.24c-2.82-.82-7.47-2.13-13.64-2.13S16.46-1.06,13.64-.24C10.82.58,6.17,1.89,0,1.89"/>
        </g>
        <g>
          <path class="cls-16" d="M0,6.19c-6.18,0-10.82-1.31-13.64-2.13-2.82-.82-7.47-2.13-13.64-2.13s-10.82,1.31-13.64,2.13c-2.82.82-7.47,2.13-13.64,2.13s-10.82-1.31-13.64-2.13c-2.82-.82-7.47-2.13-13.64-2.13s-10.82,1.31-13.64,2.13c-2.82.82-7.47,2.13-13.64,2.13"/>
          <path class="cls-16" d="M0,10.49c-6.18,0-10.82-1.31-13.64-2.13-2.82-.82-7.47-2.13-13.64-2.13s-10.82,1.3-13.64,2.13c-2.82.82-7.47,2.13-13.64,2.13s-10.82-1.31-13.64-2.13c-2.82-.82-7.47-2.13-13.64-2.13s-10.82,1.3-13.64,2.13c-2.82.82-7.47,2.13-13.64,2.13"/>
          <path class="cls-16" d="M0,14.79c-6.18,0-10.82-1.3-13.64-2.13-2.82-.82-7.47-2.13-13.64-2.13s-10.82,1.3-13.64,2.13c-2.82.82-7.47,2.13-13.64,2.13s-10.82-1.3-13.64-2.13c-2.82-.82-7.47-2.13-13.64-2.13s-10.82,1.3-13.64,2.13c-2.82.82-7.47,2.13-13.64,2.13"/>
          <path class="cls-16" d="M0,1.89C-6.18,1.89-10.82.58-13.64-.24c-2.82-.82-7.47-2.13-13.64-2.13s-10.82,1.31-13.64,2.13c-2.82.82-7.47,2.13-13.64,2.13s-10.82-1.3-13.64-2.13c-2.82-.82-7.47-2.13-13.64-2.13s-10.82,1.31-13.64,2.13c-2.82.82-7.47,2.13-13.64,2.13"/>
        </g>
      </g>
    </pattern>
    <pattern id="Zigzag_Color" data-name="Zigzag Color" x="0" y="0" width="75" height="81.6" patternTransform="translate(-600.77 -292.89)" patternUnits="userSpaceOnUse" viewBox="0 0 75 81.6">
      <g>
        <rect class="cls-7" x="0" y="0" width="75" height="81.6"/>
        <g>
          <rect class="cls-10" x="74.98" y="61.17" width="75.08" height="40.91"/>
          <polyline class="cls-14" points="151.84 78.39 150 76.55 142.5 84.05 135 76.55 127.5 84.05 120 76.55 112.5 84.05 105 76.55 97.5 84.05 90 76.55 82.5 84.05 75 76.55 73.16 78.39"/>
          <polyline class="cls-14" points="151.84 64.79 150 62.95 142.5 70.45 135 62.95 127.5 70.45 120 62.95 112.5 70.45 105 62.95 97.5 70.45 90 62.95 82.5 70.45 75 62.95 73.16 64.79"/>
          <polyline class="cls-14" points="151.84 71.59 150 69.75 142.5 77.25 135 69.75 127.5 77.25 120 69.75 112.5 77.25 105 69.75 97.5 77.25 90 69.75 82.5 77.25 75 69.75 73.16 71.59"/>
        </g>
        <g>
          <rect class="cls-10" x="-.02" y="61.17" width="75.08" height="40.91"/>
          <polyline class="cls-14" points="76.84 78.39 75 76.55 67.5 84.05 60 76.55 52.5 84.05 45 76.55 37.5 84.05 30 76.55 22.5 84.05 15 76.55 7.5 84.05 0 76.55 -1.84 78.39"/>
          <polyline class="cls-14" points="76.84 64.79 75 62.95 67.5 70.45 60 62.95 52.5 70.45 45 62.95 37.5 70.45 30 62.95 22.5 70.45 15 62.95 7.5 70.45 0 62.95 -1.84 64.79"/>
          <polyline class="cls-14" points="76.84 71.59 75 69.75 67.5 77.25 60 69.75 52.5 77.25 45 69.75 37.5 77.25 30 69.75 22.5 77.25 15 69.75 7.5 77.25 0 69.75 -1.84 71.59"/>
        </g>
        <g>
          <rect class="cls-10" x="-75.02" y="61.17" width="75.08" height="40.91"/>
          <polyline class="cls-14" points="1.84 78.39 0 76.55 -7.5 84.05 -15 76.55 -22.5 84.05 -30 76.55 -37.5 84.05 -45 76.55 -52.5 84.05 -60 76.55 -67.5 84.05 -75 76.55 -76.84 78.39"/>
          <polyline class="cls-14" points="1.84 64.79 0 62.95 -7.5 70.45 -15 62.95 -22.5 70.45 -30 62.95 -37.5 70.45 -45 62.95 -52.5 70.45 -60 62.95 -67.5 70.45 -75 62.95 -76.84 64.79"/>
          <polyline class="cls-14" points="1.84 71.59 0 69.75 -7.5 77.25 -15 69.75 -22.5 77.25 -30 69.75 -37.5 77.25 -45 69.75 -52.5 77.25 -60 69.75 -67.5 77.25 -75 69.75 -76.84 71.59"/>
        </g>
        <g>
          <rect class="cls-10" x="74.98" y="20.37" width="75.08" height="40.91"/>
          <polyline class="cls-14" points="151.84 51.19 150 49.35 142.5 56.85 135 49.35 127.5 56.85 120 49.35 112.5 56.85 105 49.35 97.5 56.85 90 49.35 82.5 56.85 75 49.35 73.16 51.19"/>
          <polyline class="cls-14" points="151.84 37.59 150 35.75 142.5 43.25 135 35.75 127.5 43.25 120 35.75 112.5 43.25 105 35.75 97.5 43.25 90 35.75 82.5 43.25 75 35.75 73.16 37.59"/>
          <polyline class="cls-14" points="151.84 23.99 150 22.15 142.5 29.65 135 22.15 127.5 29.65 120 22.15 112.5 29.65 105 22.15 97.5 29.65 90 22.15 82.5 29.65 75 22.15 73.16 23.99"/>
          <polyline class="cls-14" points="151.84 57.99 150 56.15 142.5 63.65 135 56.15 127.5 63.65 120 56.15 112.5 63.65 105 56.15 97.5 63.65 90 56.15 82.5 63.65 75 56.15 73.16 57.99"/>
          <polyline class="cls-14" points="151.84 44.39 150 42.55 142.5 50.05 135 42.55 127.5 50.05 120 42.55 112.5 50.05 105 42.55 97.5 50.05 90 42.55 82.5 50.05 75 42.55 73.16 44.39"/>
          <polyline class="cls-14" points="151.84 30.79 150 28.95 142.5 36.45 135 28.95 127.5 36.45 120 28.95 112.5 36.45 105 28.95 97.5 36.45 90 28.95 82.5 36.45 75 28.95 73.16 30.79"/>
        </g>
        <g>
          <rect class="cls-10" x="-.02" y="20.37" width="75.08" height="40.91"/>
          <polyline class="cls-14" points="76.84 51.19 75 49.35 67.5 56.85 60 49.35 52.5 56.85 45 49.35 37.5 56.85 30 49.35 22.5 56.85 15 49.35 7.5 56.85 0 49.35 -1.84 51.19"/>
          <polyline class="cls-14" points="76.84 37.59 75 35.75 67.5 43.25 60 35.75 52.5 43.25 45 35.75 37.5 43.25 30 35.75 22.5 43.25 15 35.75 7.5 43.25 0 35.75 -1.84 37.59"/>
          <polyline class="cls-14" points="76.84 23.99 75 22.15 67.5 29.65 60 22.15 52.5 29.65 45 22.15 37.5 29.65 30 22.15 22.5 29.65 15 22.15 7.5 29.65 0 22.15 -1.84 23.99"/>
          <polyline class="cls-14" points="76.84 57.99 75 56.15 67.5 63.65 60 56.15 52.5 63.65 45 56.15 37.5 63.65 30 56.15 22.5 63.65 15 56.15 7.5 63.65 0 56.15 -1.84 57.99"/>
          <polyline class="cls-14" points="76.84 44.39 75 42.55 67.5 50.05 60 42.55 52.5 50.05 45 42.55 37.5 50.05 30 42.55 22.5 50.05 15 42.55 7.5 50.05 0 42.55 -1.84 44.39"/>
          <polyline class="cls-14" points="76.84 30.79 75 28.95 67.5 36.45 60 28.95 52.5 36.45 45 28.95 37.5 36.45 30 28.95 22.5 36.45 15 28.95 7.5 36.45 0 28.95 -1.84 30.79"/>
        </g>
        <g>
          <rect class="cls-10" x="-75.02" y="20.37" width="75.08" height="40.91"/>
          <polyline class="cls-14" points="1.84 51.19 0 49.35 -7.5 56.85 -15 49.35 -22.5 56.85 -30 49.35 -37.5 56.85 -45 49.35 -52.5 56.85 -60 49.35 -67.5 56.85 -75 49.35 -76.84 51.19"/>
          <polyline class="cls-14" points="1.84 37.59 0 35.75 -7.5 43.25 -15 35.75 -22.5 43.25 -30 35.75 -37.5 43.25 -45 35.75 -52.5 43.25 -60 35.75 -67.5 43.25 -75 35.75 -76.84 37.59"/>
          <polyline class="cls-14" points="1.84 23.99 0 22.15 -7.5 29.65 -15 22.15 -22.5 29.65 -30 22.15 -37.5 29.65 -45 22.15 -52.5 29.65 -60 22.15 -67.5 29.65 -75 22.15 -76.84 23.99"/>
          <polyline class="cls-14" points="1.84 57.99 0 56.15 -7.5 63.65 -15 56.15 -22.5 63.65 -30 56.15 -37.5 63.65 -45 56.15 -52.5 63.65 -60 56.15 -67.5 63.65 -75 56.15 -76.84 57.99"/>
          <polyline class="cls-14" points="1.84 44.39 0 42.55 -7.5 50.05 -15 42.55 -22.5 50.05 -30 42.55 -37.5 50.05 -45 42.55 -52.5 50.05 -60 42.55 -67.5 50.05 -75 42.55 -76.84 44.39"/>
          <polyline class="cls-14" points="1.84 30.79 0 28.95 -7.5 36.45 -15 28.95 -22.5 36.45 -30 28.95 -37.5 36.45 -45 28.95 -52.5 36.45 -60 28.95 -67.5 36.45 -75 28.95 -76.84 30.79"/>
        </g>
        <g>
          <rect class="cls-10" x="74.98" y="-20.43" width="75.08" height="40.91"/>
          <polyline class="cls-14" points="151.84 10.39 150 8.55 142.5 16.05 135 8.55 127.5 16.05 120 8.55 112.5 16.05 105 8.55 97.5 16.05 90 8.55 82.5 16.05 75 8.55 73.16 10.39"/>
          <polyline class="cls-14" points="151.84 -3.21 150 -5.05 142.5 2.45 135 -5.05 127.5 2.45 120 -5.05 112.5 2.45 105 -5.05 97.5 2.45 90 -5.05 82.5 2.45 75 -5.05 73.16 -3.21"/>
          <polyline class="cls-14" points="151.84 17.19 150 15.35 142.5 22.85 135 15.35 127.5 22.85 120 15.35 112.5 22.85 105 15.35 97.5 22.85 90 15.35 82.5 22.85 75 15.35 73.16 17.19"/>
          <polyline class="cls-14" points="151.84 3.59 150 1.75 142.5 9.25 135 1.75 127.5 9.25 120 1.75 112.5 9.25 105 1.75 97.5 9.25 90 1.75 82.5 9.25 75 1.75 73.16 3.59"/>
        </g>
        <g>
          <rect class="cls-10" x="-.02" y="-20.43" width="75.08" height="40.91"/>
          <polyline class="cls-14" points="76.84 10.39 75 8.55 67.5 16.05 60 8.55 52.5 16.05 45 8.55 37.5 16.05 30 8.55 22.5 16.05 15 8.55 7.5 16.05 0 8.55 -1.84 10.39"/>
          <polyline class="cls-14" points="76.84 -3.21 75 -5.05 67.5 2.45 60 -5.05 52.5 2.45 45 -5.05 37.5 2.45 30 -5.05 22.5 2.45 15 -5.05 7.5 2.45 0 -5.05 -1.84 -3.21"/>
          <polyline class="cls-14" points="76.84 17.19 75 15.35 67.5 22.85 60 15.35 52.5 22.85 45 15.35 37.5 22.85 30 15.35 22.5 22.85 15 15.35 7.5 22.85 0 15.35 -1.84 17.19"/>
          <polyline class="cls-14" points="76.84 3.59 75 1.75 67.5 9.25 60 1.75 52.5 9.25 45 1.75 37.5 9.25 30 1.75 22.5 9.25 15 1.75 7.5 9.25 0 1.75 -1.84 3.59"/>
        </g>
        <g>
          <rect class="cls-10" x="-75.02" y="-20.43" width="75.08" height="40.91"/>
          <polyline class="cls-14" points="1.84 10.39 0 8.55 -7.5 16.05 -15 8.55 -22.5 16.05 -30 8.55 -37.5 16.05 -45 8.55 -52.5 16.05 -60 8.55 -67.5 16.05 -75 8.55 -76.84 10.39"/>
          <polyline class="cls-14" points="1.84 -3.21 0 -5.05 -7.5 2.45 -15 -5.05 -22.5 2.45 -30 -5.05 -37.5 2.45 -45 -5.05 -52.5 2.45 -60 -5.05 -67.5 2.45 -75 -5.05 -76.84 -3.21"/>
          <polyline class="cls-14" points="1.84 17.19 0 15.35 -7.5 22.85 -15 15.35 -22.5 22.85 -30 15.35 -37.5 22.85 -45 15.35 -52.5 22.85 -60 15.35 -67.5 22.85 -75 15.35 -76.84 17.19"/>
          <polyline class="cls-14" points="1.84 3.59 0 1.75 -7.5 9.25 -15 1.75 -22.5 9.25 -30 1.75 -37.5 9.25 -45 1.75 -52.5 9.25 -60 1.75 -67.5 9.25 -75 1.75 -76.84 3.59"/>
        </g>
      </g>
    </pattern>
  </defs>
  <g>
    <rect class="cls-6" x="0" y="0" width="167.35" height="327.11"/>
    <rect class="cls-12" x="18.42" y="111.68" width="130.51" height="103.87"/>
    <rect class="cls-11" x="18.42" y="218.39" width="130.51" height="103.87"/>
    <rect class="cls-5" x="18.42" y="4.97" width="130.51" height="103.87"/>
    <g>
      <rect class="cls-9" x="5.89" y="5.84" width="9.17" height="7.4" rx="1.21" ry="1.21"/>
      <rect class="cls-9" x="5.89" y="16.1" width="9.17" height="7.4" rx="1.21" ry="1.21"/>
      <rect class="cls-9" x="5.89" y="26.35" width="9.17" height="7.4" rx="1.21" ry="1.21"/>
      <rect class="cls-9" x="5.89" y="36.6" width="9.17" height="7.4" rx="1.21" ry="1.21"/>
      <rect class="cls-9" x="5.89" y="46.86" width="9.17" height="7.4" rx="1.21" ry="1.21"/>
      <rect class="cls-9" x="5.89" y="57.11" width="9.17" height="7.4" rx="1.21" ry="1.21"/>
      <rect class="cls-9" x="5.89" y="67.37" width="9.17" height="7.4" rx="1.21" ry="1.21"/>
      <rect class="cls-9" x="5.89" y="77.62" width="9.17" height="7.4" rx="1.21" ry="1.21"/>
      <rect class="cls-9" x="5.89" y="87.87" width="9.17" height="7.4" rx="1.21" ry="1.21"/>
      <rect class="cls-9" x="5.89" y="98.13" width="9.17" height="7.4" rx="1.21" ry="1.21"/>
      <rect class="cls-9" x="5.89" y="108.38" width="9.17" height="7.4" rx="1.21" ry="1.21"/>
      <rect class="cls-9" x="5.89" y="118.64" width="9.17" height="7.4" rx="1.21" ry="1.21"/>
      <rect class="cls-9" x="5.89" y="128.89" width="9.17" height="7.4" rx="1.21" ry="1.21"/>
      <rect class="cls-9" x="5.89" y="139.15" width="9.17" height="7.4" rx="1.21" ry="1.21"/>
      <rect class="cls-9" x="5.89" y="149.4" width="9.17" height="7.4" rx="1.21" ry="1.21"/>
      <rect class="cls-9" x="5.89" y="159.65" width="9.17" height="7.4" rx="1.21" ry="1.21"/>
      <rect class="cls-9" x="5.89" y="169.91" width="9.17" height="7.4" rx="1.21" ry="1.21"/>
      <rect class="cls-9" x="5.89" y="180.16" width="9.17" height="7.4" rx="1.21" ry="1.21"/>
      <rect class="cls-9" x="5.89" y="190.42" width="9.17" height="7.4" rx="1.21" ry="1.21"/>
      <rect class="cls-9" x="5.89" y="200.67" width="9.17" height="7.4" rx="1.21" ry="1.21"/>
      <rect class="cls-9" x="5.89" y="210.92" width="9.17" height="7.4" rx="1.21" ry="1.21"/>
      <rect class="cls-9" x="5.89" y="221.18" width="9.17" height="7.4" rx="1.21" ry="1.21"/>
      <rect class="cls-9" x="5.89" y="231.43" width="9.17" height="7.4" rx="1.21" ry="1.21"/>
      <rect class="cls-9" x="5.89" y="241.69" width="9.17" height="7.4" rx="1.21" ry="1.21"/>
      <rect class="cls-9" x="5.89" y="251.94" width="9.17" height="7.4" rx="1.21" ry="1.21"/>
      <rect class="cls-9" x="5.89" y="262.19" width="9.17" height="7.4" rx="1.21" ry="1.21"/>
      <rect class="cls-9" x="5.89" y="272.45" width="9.17" height="7.4" rx="1.21" ry="1.21"/>
      <rect class="cls-9" x="5.89" y="282.7" width="9.17" height="7.4" rx="1.21" ry="1.21"/>
      <rect class="cls-9" x="5.89" y="292.96" width="9.17" height="7.4" rx="1.21" ry="1.21"/>
      <rect class="cls-9" x="5.89" y="303.21" width="9.17" height="7.4" rx="1.21" ry="1.21"/>
      <rect class="cls-9" x="5.89" y="313.46" width="9.17" height="7.4" rx="1.21" ry="1.21"/>
    </g>
    <g>
      <rect class="cls-9" x="151.77" y="5.84" width="9.17" height="7.4" rx="1.21" ry="1.21"/>
      <rect class="cls-9" x="151.77" y="16.1" width="9.17" height="7.4" rx="1.21" ry="1.21"/>
      <rect class="cls-9" x="151.77" y="26.35" width="9.17" height="7.4" rx="1.21" ry="1.21"/>
      <rect class="cls-9" x="151.77" y="36.6" width="9.17" height="7.4" rx="1.21" ry="1.21"/>
      <rect class="cls-9" x="151.77" y="46.86" width="9.17" height="7.4" rx="1.21" ry="1.21"/>
      <rect class="cls-9" x="151.77" y="57.11" width="9.17" height="7.4" rx="1.21" ry="1.21"/>
      <rect class="cls-9" x="151.77" y="67.37" width="9.17" height="7.4" rx="1.21" ry="1.21"/>
      <rect class="cls-9" x="151.77" y="77.62" width="9.17" height="7.4" rx="1.21" ry="1.21"/>
      <rect class="cls-9" x="151.77" y="87.87" width="9.17" height="7.4" rx="1.21" ry="1.21"/>
      <rect class="cls-9" x="151.77" y="98.13" width="9.17" height="7.4" rx="1.21" ry="1.21"/>
      <rect class="cls-9" x="151.77" y="108.38" width="9.17" height="7.4" rx="1.21" ry="1.21"/>
      <rect class="cls-9" x="151.77" y="118.64" width="9.17" height="7.4" rx="1.21" ry="1.21"/>
      <rect class="cls-9" x="151.77" y="128.89" width="9.17" height="7.4" rx="1.21" ry="1.21"/>
      <rect class="cls-9" x="151.77" y="139.15" width="9.17" height="7.4" rx="1.21" ry="1.21"/>
      <rect class="cls-9" x="151.77" y="149.4" width="9.17" height="7.4" rx="1.21" ry="1.21"/>
      <rect class="cls-9" x="151.77" y="159.65" width="9.17" height="7.4" rx="1.21" ry="1.21"/>
      <rect class="cls-9" x="151.77" y="169.91" width="9.17" height="7.4" rx="1.21" ry="1.21"/>
      <rect class="cls-9" x="151.77" y="180.16" width="9.17" height="7.4" rx="1.21" ry="1.21"/>
      <rect class="cls-9" x="151.77" y="190.42" width="9.17" height="7.4" rx="1.21" ry="1.21"/>
      <rect class="cls-9" x="151.77" y="200.67" width="9.17" height="7.4" rx="1.21" ry="1.21"/>
      <rect class="cls-9" x="151.77" y="210.92" width="9.17" height="7.4" rx="1.21" ry="1.21"/>
      <rect class="cls-9" x="151.77" y="221.18" width="9.17" height="7.4" rx="1.21" ry="1.21"/>
      <rect class="cls-9" x="151.77" y="231.43" width="9.17" height="7.4" rx="1.21" ry="1.21"/>
      <rect class="cls-9" x="151.77" y="241.69" width="9.17" height="7.4" rx="1.21" ry="1.21"/>
      <rect class="cls-9" x="151.77" y="251.94" width="9.17" height="7.4" rx="1.21" ry="1.21"/>
      <rect class="cls-9" x="151.77" y="262.19" width="9.17" height="7.4" rx="1.21" ry="1.21"/>
      <rect class="cls-9" x="151.77" y="272.45" width="9.17" height="7.4" rx="1.21" ry="1.21"/>
      <rect class="cls-9" x="151.77" y="282.7" width="9.17" height="7.4" rx="1.21" ry="1.21"/>
      <rect class="cls-9" x="151.77" y="292.96" width="9.17" height="7.4" rx="1.21" ry="1.21"/>
      <rect class="cls-9" x="151.77" y="303.21" width="9.17" height="7.4" rx="1.21" ry="1.21"/>
      <rect class="cls-9" x="151.77" y="313.46" width="9.17" height="7.4" rx="1.21" ry="1.21"/>
    </g>
  </g>
  <path class="cls-6" d="M68.62,293.15s-24.84,16.78-24.42,30.73h63.15s-2.97-15.28-12.18-26.25"/>
  <path class="cls-6" d="M68.99,179.82s-24.06,20.53-24.79,37.01l56.37-1.02s-.12-15.55-7.66-29.04"/>
  <path class="cls-6" d="M66.15,75.79s-24.06,18.23-24.79,34.7l60.97-1.64s-4.72-12.62-12.26-26.12"/>
  <g>
    <path class="cls-9" d="M113.43,151.79c-1.71-2.78-6.16-9.74-7.62-10.73-.71-.48-1.04-.91-1.07-1.37-.04-.57.37-.94.77-1.3.19-.17.39-.35.54-.56-.58.13-1.56.52-2.04.71-.61.24-.94.37-1.15.4-.37.04-.68-.16-.79-.53-.15-.47.02-1.32.43-2-.85.22-1.89.53-2.85.82l-.12.04-7.93-1.48c-34.85,2.55-40.97,30.57-41.41,32.88,1.56,8.5,5.22,15.01,6.25,16.72.91-.49,3.17-1.39,14.56,2.33,12.27,4.01,15.33.58,15.59.24.2-.48,1.45-2.99,5.92-3.36,2.32-.2,4.52.68,5.88,2.33.87,1.05,2,2.08,5.8,3.06,15.96-9.66,9.33-37.75,9.26-38.04l-.03-.14ZM56.99,167.23c-.24.16-.52.24-.84.24-.16,0-.32-.02-.5-.06-.52-.12-.85-.36-.97-.71-.21-.59.26-1.22.32-1.29l3.29-5.14-.61,5.82s-.12.74-.7,1.13ZM62.49,176.41s-.18,1.05-.99,1.6c-.34.23-.74.35-1.2.35-.23,0-.47-.03-.72-.09-.74-.17-1.2-.5-1.38-.99-.3-.84.43-1.78.46-1.82l3.12-5.96.71,6.88v.03ZM65.79,163.51c-.34.23-.74.35-1.2.35-.23,0-.47-.03-.72-.09-.74-.17-1.2-.5-1.38-.99-.3-.84.43-1.78.46-1.82l3.64-4.82.19,5.73c0,.09-.18,1.09-1,1.64ZM87.46,183.57c-1.11,1.66-2.99,2.66-4.99,2.66-.15,0-.29,0-.44-.02-2.09-.15-3.86-1.34-4.73-3.19-.93-1.97-1.14-4.66-.62-7.99.76-4.83,2.34-8.4,4.72-10.62,1.12-1.04,2.63-1.49,4.16-1.23,1.56.27,2.88,1.23,3.6,2.63,3.86,7.43.59,14.32-1.7,17.77ZM89.39,164.57c-3.18-3.97-7.93-2.6-10.9.87,2.31-4.65,8.43-6.03,11.53-1.35.89,1.29,1.41,2.77,1.6,4.26-.58-1.39-1.33-2.67-2.24-3.78ZM92.49,149.13c-7.62-10.29-13.25,3.75-15.24,5.89,0,0,5.63-12.99,10.55-12.3,4.92.69,4.69,6.41,4.69,6.41ZM107.53,146.85c2.21.29,4.39,8.28,4.39,8.28-5.19-11.72-8.33-2.94-8.48-3.66-.03-.13,1.89-4.91,4.1-4.62ZM111.66,176.41c-1.2,5.27-3.05,7.26-4.53,8.4-.47.36-1.03.55-1.61.55-.21,0-.43-.03-.65-.08-.79-.2-1.43-.74-1.76-1.49-.7-1.58-1.29-4.59-.11-9.95.68-3.08,2.65-8.91,5.25-8.91,1.21,0,2.18.44,2.88,1.31,1.93,2.42,1.16,7.4.53,10.15ZM113.5,170.54c-.05-.64-.06-1.26-.14-1.88-.41-6.05-4.94-5.53-9.34-3.66,3.06-2.36,8.77-3.36,9.57,1.72.24,1.29.14,2.58-.1,3.83Z"/>
    <path class="cls-8" d="M59.08,175.72c-.19.25-.58.9-.41,1.39.11.32.45.54,1.02.67.62.14,1.13.08,1.52-.18.57-.38.75-1.08.78-1.23l-.54-5.16-2.37,4.53Z"/>
    <path class="cls-8" d="M63.36,161.26c-.17.21-.56.87-.39,1.35.11.32.45.54,1.02.67.62.14,1.13.08,1.52-.19.64-.43.78-1.25.78-1.26l-.14-4.27-2.79,3.69Z"/>
    <path class="cls-3" d="M85.38,164.17c-.23-.04-.46-.06-.68-.06-.97,0-1.9.36-2.62,1.03-2.21,2.06-3.7,5.44-4.42,10.04-.49,3.13-.31,5.62.54,7.41.72,1.52,2.18,2.5,3.9,2.62,1.81.13,3.54-.71,4.52-2.2,2.65-3.98,5.08-10.13,1.64-16.75-.58-1.12-1.63-1.89-2.88-2.1Z"/>
    <path class="cls-13" d="M105.34,191.26c-.3-.07-.59-.13-.86-.2-2.39-.06-4.82.35-7.15.66-3.63.47-7.49,1.59-10.91,2.21,3.95-1.79,10.07-3.63,15.41-3.64-2.46-.87-3.42-1.8-4.2-2.75-1.14-1.38-3.06-2.13-5.03-1.97-4.15.34-5.05,2.68-5.09,2.78l-.04.09c-.12.19-3.05,4.7-16.77.22-7.54-2.47-12.2-3.26-13.86-2.35-.02.01-.05.02-.08.04-.11.39-.56,2.24.29,3.45.49.69,1.35,1.06,2.56,1.11,5.85.22,16.4,6.97,17.58,7.74,3.49,2.27,9.37,2.65,9.43,2.66-.03,0,5.77-.74,10.44-1.81,3.32-.77,5.79-.48,7.97-.24,1,.11,1.95.22,2.91.22.73,0,1.24-.19,1.52-.57.43-.57.29-1.46.22-1.77-3.95-1.28-8.2-.64-12.28-.07-4.27.54-8.54,1.17-12.89,1.24-3.23-.05-6.62-1.05-9.12-3.13-2.57-2.06-11.25-7.79-14.32-6.3,3.07-1.56,11.9,4.01,14.53,6.03,2.49,1.99,5.76,2.88,8.91,2.87,4.27-.14,8.53-.85,12.78-1.47,4.28-.68,8.73-1.44,13.01-.04,0,0-.01.03-.03.08.39-.05,1.36-.23,1.84-.84.24-.3.32-.67.25-1.12-.19-1.23-3.9-2.5-7.01-3.17v.04ZM91.67,188.16c.34.43.32.93-.05,1.32-.23-.16-.36-.3-.46-.41-.35-.33-.31-.5-.84-.71.16-.6.98-.64,1.35-.2Z"/>
    <path class="cls-8" d="M55.16,166.54c.06.18.27.31.61.39.38.09.7.05.94-.11.39-.26.48-.78.48-.78l.39-3.71-2.17,3.38c-.11.15-.35.55-.25.83Z"/>
    <path class="cls-2" d="M77.39,137.56c4.07-1.38,8.71-2.37,14.01-2.77l1.29-1.38c-3.71-2.73-8.73-3.55-13.38-3.55-1.83,0-3.6.12-5.2.31-1.89.21-3.73.64-5.5,1.25,4.44,1.24,7.55,4.62,8.78,6.15Z"/>
    <path class="cls-2" d="M57.6,138.79c-.19.22-.38.44-.56.66-7.09,8.85-8.26,18.47-7.24,26.64.82-2.83,2.61-7.67,6.16-12.72-1.04-6.44.39-11.66,1.64-14.58Z"/>
    <path class="cls-3" d="M108.28,165.94c-1.35,0-3.3,3.72-4.27,8.12-1.12,5.1-.59,7.89.05,9.33.21.47.6.8,1.09.93.49.12,1,.02,1.4-.29,1.35-1.04,3.04-2.87,4.17-7.83.98-4.32.86-7.8-.34-9.31-.5-.63-1.19-.94-2.09-.94Z"/>
    <path class="cls-6" d="M111.92,155.13s-2.18-8-4.39-8.28-4.13,4.49-4.1,4.62c.15.72,3.3-8.06,8.48,3.66Z"/>
    <path class="cls-6" d="M108.25,164.94c-2.6,0-4.57,5.83-5.25,8.91-1.18,5.36-.59,8.37.11,9.95.33.75.97,1.29,1.76,1.49.21.05.43.08.65.08.58,0,1.14-.19,1.61-.55,1.48-1.14,3.33-3.13,4.53-8.4.63-2.75,1.39-7.74-.53-10.15-.69-.87-1.66-1.31-2.88-1.31ZM110.69,176.18c-1.13,4.96-2.82,6.79-4.17,7.83-.4.31-.91.42-1.4.29-.49-.12-.89-.46-1.09-.93-.64-1.44-1.17-4.23-.05-9.33.97-4.4,2.92-8.12,4.27-8.12.91,0,1.59.31,2.09.94,1.2,1.5,1.33,4.98.34,9.31Z"/>
    <path class="cls-6" d="M107.29,170.57c-2.06-.52-3.51,5.33-3.51,5.33l1.43.86-1.7.6s-.59,4.19,1.47,4.67c1.83.43,3.07-4.35,3.33-5.45.04-.16.06-.31.07-.47.07-.91.67-5.1-1.1-5.54Z"/>
    <path class="cls-6" d="M104.02,165c4.4-1.87,8.93-2.39,9.34,3.66.08.62.09,1.25.14,1.88.24-1.24.34-2.54.1-3.83-.8-5.08-6.51-4.08-9.57-1.72Z"/>
    <path class="cls-6" d="M93.6,132.81c-5.43-4.22-13.63-4.31-19.6-3.64-6.98.79-13.44,4.31-17.73,9.66-8.01,10-8.68,20.94-7.09,29.8,0,0,0,.03,0,.03h.01c1.67,9.28,5.8,16.28,6.58,17.52-.18.68-.57,2.71.46,4.17.67.96,1.8,1.48,3.35,1.54,4.53.17,12.87,4.84,17.08,7.58,3.72,2.42,9.66,2.8,10,2.81.06,0,5.92-.75,10.63-1.83,3.15-.73,5.43-.47,7.63-.22,1.03.12,2.01.23,3.02.23s1.84-.33,2.32-.97c.53-.71.53-1.63.46-2.21.61-.12,1.59-.42,2.18-1.15.42-.52.58-1.17.47-1.91-.33-2.13-5.21-3.44-7.73-3.98,14.59-9.93,9.55-35.23,8.88-38.27,7.36-6.55,11.22-12.58,6.36-20.55-4.5-7.38-24.55.3-27.26,1.38ZM74.11,130.16c1.6-.18,3.37-.31,5.2-.31,4.65,0,9.67.83,13.38,3.55l-1.29,1.38c-5.3.4-9.93,1.39-14.01,2.77-1.23-1.54-4.34-4.91-8.78-6.15,1.77-.61,3.62-1.03,5.5-1.25ZM57.05,139.45c.18-.23.37-.44.56-.66-1.25,2.92-2.67,8.15-1.64,14.58-3.55,5.05-5.34,9.89-6.16,12.72-1.01-8.18.15-17.79,7.24-26.64ZM112.36,194.39c.07.46-.01.82-.25,1.12-.49.6-1.46.78-1.84.84.02-.05.03-.08.03-.08-4.28-1.41-8.73-.64-13.01.04-4.25.62-8.51,1.32-12.78,1.47-3.15,0-6.42-.89-8.91-2.87-2.63-2.02-11.46-7.59-14.53-6.03,3.07-1.49,11.75,4.24,14.32,6.3,2.5,2.09,5.89,3.09,9.12,3.13,4.34-.07,8.62-.69,12.89-1.24,4.07-.57,8.32-1.21,12.28.07.07.31.21,1.2-.22,1.77-.28.38-.79.57-1.52.57-.96,0-1.9-.11-2.91-.22-2.18-.25-4.65-.53-7.97.24-4.66,1.08-10.47,1.81-10.44,1.81-.06,0-5.93-.39-9.43-2.66-1.18-.77-11.74-7.53-17.58-7.74-1.21-.04-2.08-.42-2.56-1.11-.85-1.2-.4-3.06-.29-3.45.02-.01.05-.02.08-.04,1.65-.9,6.32-.11,13.86,2.35,13.73,4.49,16.66-.02,16.77-.22l.04-.09c.04-.1.94-2.43,5.09-2.78,1.97-.17,3.89.59,5.03,1.97.78.95,1.74,1.88,4.2,2.75-5.34.01-11.46,1.86-15.41,3.64,3.42-.62,7.28-1.75,10.91-2.21,2.33-.3,4.77-.72,7.15-.66.28.07.56.13.86.2v-.04c3.12.67,6.83,1.93,7.02,3.17ZM104.2,189.96c-3.81-.98-4.94-2.01-5.8-3.06-1.36-1.65-3.56-2.52-5.88-2.33-4.47.37-5.72,2.88-5.92,3.36-.27.34-3.32,3.78-15.59-.24-11.39-3.72-13.64-2.82-14.56-2.33-1.03-1.71-4.69-8.21-6.25-16.72.44-2.31,6.56-30.33,41.41-32.88l7.93,1.48.12-.04c.95-.29,2-.6,2.85-.82-.41.67-.58,1.53-.43,2,.12.37.42.58.79.53.21-.03.53-.16,1.15-.4.48-.19,1.46-.57,2.04-.71-.15.2-.35.38-.54.56-.4.36-.81.74-.77,1.3.03.46.36.88,1.07,1.37,1.46,1,5.91,7.95,7.62,10.73l.03.14c.07.28,6.71,28.38-9.26,38.04Z"/>
    <path class="cls-6" d="M91.16,189.06c.11.12.24.25.46.41.37-.39.39-.89.05-1.32-.36-.44-1.18-.4-1.35.2.52.22.49.38.84.71Z"/>
    <path class="cls-6" d="M85.55,163.18c-1.52-.26-3.04.18-4.16,1.23-2.38,2.22-3.97,5.79-4.72,10.62-.52,3.33-.31,6.02.62,7.99.88,1.85,2.64,3.04,4.73,3.19.15.01.29.02.44.02,2,0,3.89-.99,4.99-2.66,2.29-3.44,5.55-10.33,1.7-17.77-.73-1.4-2.04-2.36-3.6-2.63ZM86.62,183.02c-.99,1.48-2.72,2.33-4.52,2.2-1.72-.12-3.18-1.11-3.9-2.62-.85-1.79-1.03-4.28-.54-7.41.72-4.6,2.21-7.98,4.42-10.04.72-.67,1.65-1.03,2.62-1.03.23,0,.45.02.68.06,1.25.22,2.3.98,2.88,2.1,3.44,6.63,1.01,12.77-1.64,16.75Z"/>
    <path class="cls-6" d="M78.49,165.44c2.97-3.47,7.72-4.84,10.9-.87.91,1.1,1.66,2.39,2.24,3.78-.19-1.5-.72-2.98-1.6-4.26-3.11-4.68-9.22-3.29-11.53,1.35Z"/>
    <path class="cls-6" d="M83.27,170.6c-2.99-.69-3.59,4.85-3.59,4.85l2.19,1.3-2.36.51s-.65,4.14,2.36,4.74c3.01.61,3.7-5.61,3.7-5.61,0,0,.69-5.11-2.29-5.8Z"/>
    <path class="cls-6" d="M87.8,142.72c-4.92-.69-10.55,12.3-10.55,12.3,1.99-2.13,7.62-16.17,15.24-5.89,0,0,.23-5.71-4.69-6.41Z"/>
    <path class="cls-6" d="M62.96,160.96s-.76.98-.46,1.82c.17.49.63.82,1.38.99.25.06.49.09.72.09.45,0,.85-.12,1.2-.35.82-.55.99-1.55,1-1.64l-.19-5.73-3.64,4.82ZM65.51,163.1c-.39.27-.91.33-1.52.19-.56-.13-.9-.36-1.02-.67-.17-.48.22-1.14.39-1.35l2.79-3.69.14,4.27s-.14.83-.78,1.26Z"/>
    <path class="cls-6" d="M58.67,175.45s-.76.98-.46,1.82c.17.49.63.82,1.38.99.25.06.49.09.72.09.45,0,.85-.12,1.2-.35.82-.55.99-1.55.99-1.6v-.03s-.71-6.88-.71-6.88l-3.12,5.96ZM61.21,177.59c-.39.26-.9.33-1.52.18-.56-.13-.9-.36-1.02-.67-.17-.48.22-1.14.41-1.39l2.37-4.53.54,5.16c-.03.15-.21.85-.78,1.23Z"/>
    <path class="cls-6" d="M55,165.42c-.05.07-.53.7-.32,1.29.12.35.45.59.97.71.17.04.34.06.5.06.32,0,.6-.08.84-.24.57-.38.69-1.08.7-1.13l.61-5.82-3.29,5.14ZM57.19,166.04s-.09.52-.48.78c-.24.16-.56.2-.94.11-.34-.08-.55-.21-.61-.39-.1-.28.14-.68.25-.83l2.17-3.38-.39,3.71Z"/>
  </g>
  <g>
    <path class="cls-9" d="M113.43,259.05c-1.71-2.78-6.16-9.74-7.62-10.73-.71-.48-1.04-.91-1.07-1.37-.04-.57.37-.94.77-1.3.19-.17.39-.35.54-.56-.58.13-1.56.52-2.04.71-.61.24-.94.37-1.15.4-.37.04-.68-.16-.79-.53-.15-.47.02-1.32.43-2-.85.22-1.89.53-2.85.82l-.12.04-7.93-1.48c-34.85,2.55-40.97,30.57-41.41,32.88,1.56,8.5,5.22,15.01,6.25,16.72.91-.49,3.17-1.39,14.56,2.33,12.27,4.01,15.33.58,15.59.24.2-.48,1.45-2.99,5.92-3.36,2.32-.2,4.52.68,5.88,2.33.87,1.05,2,2.08,5.8,3.06,15.96-9.66,9.33-37.75,9.26-38.04l-.03-.14ZM87.46,290.83c-1.11,1.66-2.99,2.66-4.99,2.66-.15,0-.29,0-.44-.02-2.09-.15-3.86-1.34-4.73-3.19-.93-1.97-1.14-4.66-.62-7.99.76-4.83,2.34-8.4,4.72-10.62,1.12-1.04,2.63-1.49,4.16-1.23,1.56.27,2.88,1.23,3.6,2.63,3.86,7.43.59,14.32-1.7,17.77ZM89.39,271.83c-3.18-3.97-7.93-2.6-10.9.87,2.31-4.65,8.43-6.03,11.53-1.35.89,1.29,1.41,2.77,1.6,4.26-.58-1.39-1.33-2.67-2.24-3.78ZM92.49,256.39c-7.62-10.29-13.25,3.75-15.24,5.89,0,0,5.63-12.99,10.55-12.3,4.92.69,4.69,6.41,4.69,6.41ZM107.53,254.11c2.21.29,4.39,8.28,4.39,8.28-5.19-11.72-8.33-2.94-8.48-3.66-.03-.13,1.89-4.91,4.1-4.62ZM111.66,283.67c-1.2,5.27-3.05,7.26-4.53,8.4-.47.36-1.03.55-1.61.55-.21,0-.43-.03-.65-.08-.79-.2-1.43-.74-1.76-1.49-.7-1.58-1.29-4.59-.11-9.95.68-3.08,2.65-8.91,5.25-8.91,1.21,0,2.18.44,2.88,1.31,1.93,2.42,1.16,7.4.53,10.15ZM113.5,277.8c-.05-.64-.06-1.26-.14-1.88-.41-6.05-4.94-5.53-9.34-3.66,3.06-2.36,8.77-3.36,9.57,1.72.24,1.29.14,2.58-.1,3.83Z"/>
    <path class="cls-8" d="M57.68,286.27c-.19.25-.58.9-.41,1.39.11.32.45.54,1.02.67.62.14,1.13.08,1.52-.18.57-.38.75-1.08.78-1.23l-.54-5.16-2.37,4.53Z"/>
    <path class="cls-8" d="M61.95,271.81c-.17.21-.56.87-.39,1.35.11.32.45.54,1.02.67.62.14,1.13.08,1.52-.19.64-.43.78-1.25.78-1.26l-.14-4.27-2.79,3.69Z"/>
    <path class="cls-3" d="M85.38,271.43c-.23-.04-.46-.06-.68-.06-.97,0-1.9.36-2.62,1.03-2.21,2.06-3.7,5.44-4.42,10.04-.49,3.13-.31,5.62.54,7.41.72,1.52,2.18,2.5,3.9,2.62,1.81.13,3.54-.71,4.52-2.2,2.65-3.98,5.08-10.13,1.64-16.75-.58-1.12-1.63-1.89-2.88-2.1Z"/>
    <path class="cls-13" d="M105.34,298.52c-.3-.07-.59-.13-.86-.2-2.39-.06-4.82.35-7.15.66-3.63.47-7.49,1.59-10.91,2.21,3.95-1.79,10.07-3.63,15.41-3.64-2.46-.87-3.42-1.8-4.2-2.75-1.14-1.38-3.06-2.13-5.03-1.97-4.15.34-5.05,2.68-5.09,2.78l-.04.09c-.12.19-3.05,4.7-16.77.22-7.54-2.47-12.2-3.26-13.86-2.35-.02.01-.05.02-.08.04-.11.39-.56,2.24.29,3.45.49.69,1.35,1.06,2.56,1.11,5.85.22,16.4,6.97,17.58,7.74,3.49,2.27,9.37,2.65,9.43,2.66-.03,0,5.77-.74,10.44-1.81,3.32-.77,5.79-.48,7.97-.24,1,.11,1.95.22,2.91.22.73,0,1.24-.19,1.52-.57.43-.57.29-1.46.22-1.77-3.95-1.28-8.2-.64-12.28-.07-4.27.54-8.54,1.17-12.89,1.24-3.23-.05-6.62-1.05-9.12-3.13-2.57-2.06-11.25-7.79-14.32-6.3,3.07-1.56,11.9,4.01,14.53,6.03,2.49,1.99,5.76,2.88,8.91,2.87,4.27-.14,8.53-.85,12.78-1.47,4.28-.68,8.73-1.44,13.01-.04,0,0-.01.03-.03.08.39-.05,1.36-.23,1.84-.84.24-.3.32-.67.25-1.12-.19-1.23-3.9-2.5-7.01-3.17v.04ZM91.67,295.42c.34.43.32.93-.05,1.32-.23-.16-.36-.3-.46-.41-.35-.33-.31-.5-.84-.71.16-.6.98-.64,1.35-.2Z"/>
    <path class="cls-8" d="M53.75,277.09c.06.18.27.31.61.39.38.09.7.05.94-.11.39-.26.48-.78.48-.78l.39-3.71-2.17,3.38c-.11.15-.35.55-.25.83Z"/>
    <path class="cls-2" d="M77.39,244.82c4.07-1.38,8.71-2.37,14.01-2.77l1.29-1.38c-3.71-2.73-8.73-3.55-13.38-3.55-1.83,0-3.6.12-5.2.31-1.89.21-3.73.64-5.5,1.25,4.44,1.24,7.55,4.62,8.78,6.15Z"/>
    <path class="cls-2" d="M57.6,246.05c-.19.22-.38.44-.56.66-7.09,8.85-8.26,18.47-7.24,26.64.82-2.83,2.61-7.67,6.16-12.72-1.04-6.44.39-11.66,1.64-14.58Z"/>
    <path class="cls-3" d="M108.28,273.2c-1.35,0-3.3,3.72-4.27,8.12-1.12,5.1-.59,7.89.05,9.33.21.47.6.8,1.09.93.49.12,1,.02,1.4-.29,1.35-1.04,3.04-2.87,4.17-7.83.98-4.32.86-7.8-.34-9.31-.5-.63-1.19-.94-2.09-.94Z"/>
    <path class="cls-6" d="M111.92,262.39s-2.18-8-4.39-8.28-4.13,4.49-4.1,4.62c.15.72,3.3-8.06,8.48,3.66Z"/>
    <path class="cls-6" d="M108.25,272.2c-2.6,0-4.57,5.83-5.25,8.91-1.18,5.36-.59,8.37.11,9.95.33.75.97,1.29,1.76,1.49.21.05.43.08.65.08.58,0,1.14-.19,1.61-.55,1.48-1.14,3.33-3.13,4.53-8.4.63-2.75,1.39-7.74-.53-10.15-.69-.87-1.66-1.31-2.88-1.31ZM110.69,283.44c-1.13,4.96-2.82,6.79-4.17,7.83-.4.31-.91.42-1.4.29-.49-.12-.89-.46-1.09-.93-.64-1.44-1.17-4.23-.05-9.33.97-4.4,2.92-8.12,4.27-8.12.91,0,1.59.31,2.09.94,1.2,1.5,1.33,4.98.34,9.31Z"/>
    <path class="cls-6" d="M109.84,277.83c-2.06-.52-3.51,5.33-3.51,5.33l1.43.86-1.7.6s-.59,4.19,1.47,4.67c1.83.43,3.07-4.35,3.33-5.45.04-.16.06-.31.07-.47.07-.91.67-5.1-1.1-5.54Z"/>
    <path class="cls-6" d="M104.02,272.26c4.4-1.87,8.93-2.39,9.34,3.66.08.62.09,1.25.14,1.88.24-1.24.34-2.54.1-3.83-.8-5.08-6.51-4.08-9.57-1.72Z"/>
    <path class="cls-6" d="M93.6,240.07c-5.43-4.22-13.63-4.31-19.6-3.64-6.98.79-13.44,4.31-17.73,9.66-8.01,10-8.68,20.94-7.09,29.8,0,0,0,.03,0,.03h.01c1.67,9.28,5.8,16.28,6.58,17.52-.18.68-.57,2.71.46,4.17.67.96,1.8,1.48,3.35,1.54,4.53.17,12.87,4.84,17.08,7.58,3.72,2.42,9.66,2.8,10,2.81.06,0,5.92-.75,10.63-1.83,3.15-.73,5.43-.47,7.63-.22,1.03.12,2.01.23,3.02.23s1.84-.33,2.32-.97c.53-.71.53-1.63.46-2.21.61-.12,1.59-.42,2.18-1.15.42-.52.58-1.17.47-1.91-.33-2.13-5.21-3.44-7.73-3.98,14.59-9.93,9.55-35.23,8.88-38.27,7.36-6.55,11.22-12.58,6.36-20.55-4.5-7.38-24.55.3-27.26,1.38ZM74.11,237.42c1.6-.18,3.37-.31,5.2-.31,4.65,0,9.67.83,13.38,3.55l-1.29,1.38c-5.3.4-9.93,1.39-14.01,2.77-1.23-1.54-4.34-4.91-8.78-6.15,1.77-.61,3.62-1.03,5.5-1.25ZM57.05,246.71c.18-.23.37-.44.56-.66-1.25,2.92-2.67,8.15-1.64,14.58-3.55,5.05-5.34,9.89-6.16,12.72-1.01-8.18.15-17.79,7.24-26.64ZM112.36,301.65c.07.46-.01.82-.25,1.12-.49.6-1.46.78-1.84.84.02-.05.03-.08.03-.08-4.28-1.41-8.73-.64-13.01.04-4.25.62-8.51,1.32-12.78,1.47-3.15,0-6.42-.89-8.91-2.87-2.63-2.02-11.46-7.59-14.53-6.03,3.07-1.49,11.75,4.24,14.32,6.3,2.5,2.09,5.89,3.09,9.12,3.13,4.34-.07,8.62-.69,12.89-1.24,4.07-.57,8.32-1.21,12.28.07.07.31.21,1.2-.22,1.77-.28.38-.79.57-1.52.57-.96,0-1.9-.11-2.91-.22-2.18-.25-4.65-.53-7.97.24-4.66,1.08-10.47,1.81-10.44,1.81-.06,0-5.93-.39-9.43-2.66-1.18-.77-11.74-7.53-17.58-7.74-1.21-.04-2.08-.42-2.56-1.11-.85-1.2-.4-3.06-.29-3.45.02-.01.05-.02.08-.04,1.65-.9,6.32-.11,13.86,2.35,13.73,4.49,16.66-.02,16.77-.22l.04-.09c.04-.1.94-2.43,5.09-2.78,1.97-.17,3.89.59,5.03,1.97.78.95,1.74,1.88,4.2,2.75-5.34.01-11.46,1.86-15.41,3.64,3.42-.62,7.28-1.75,10.91-2.21,2.33-.3,4.77-.72,7.15-.66.28.07.56.13.86.2v-.04c3.12.67,6.83,1.93,7.02,3.17ZM104.2,297.22c-3.81-.98-4.94-2.01-5.8-3.06-1.36-1.65-3.56-2.52-5.88-2.33-4.47.37-5.72,2.88-5.92,3.36-.27.34-3.32,3.78-15.59-.24-11.39-3.72-13.64-2.82-14.56-2.33-1.03-1.71-4.69-8.21-6.25-16.72.44-2.31,6.56-30.33,41.41-32.88l7.93,1.48.12-.04c.95-.29,2-.6,2.85-.82-.41.67-.58,1.53-.43,2,.12.37.42.58.79.53.21-.03.53-.16,1.15-.4.48-.19,1.46-.57,2.04-.71-.15.2-.35.38-.54.56-.4.36-.81.74-.77,1.3.03.46.36.88,1.07,1.37,1.46,1,5.91,7.95,7.62,10.73l.03.14c.07.28,6.71,28.38-9.26,38.04Z"/>
    <path class="cls-6" d="M91.16,296.32c.11.12.24.25.46.41.37-.39.39-.89.05-1.32-.36-.44-1.18-.4-1.35.2.52.22.49.38.84.71Z"/>
    <path class="cls-6" d="M85.55,270.44c-1.52-.26-3.04.18-4.16,1.23-2.38,2.22-3.97,5.79-4.72,10.62-.52,3.33-.31,6.02.62,7.99.88,1.85,2.64,3.04,4.73,3.19.15.01.29.02.44.02,2,0,3.89-.99,4.99-2.66,2.29-3.44,5.55-10.33,1.7-17.77-.73-1.4-2.04-2.36-3.6-2.63ZM86.62,290.28c-.99,1.48-2.72,2.33-4.52,2.2-1.72-.12-3.18-1.11-3.9-2.62-.85-1.79-1.03-4.28-.54-7.41.72-4.6,2.21-7.98,4.42-10.04.72-.67,1.65-1.03,2.62-1.03.23,0,.45.02.68.06,1.25.22,2.3.98,2.88,2.1,3.44,6.63,1.01,12.77-1.64,16.75Z"/>
    <path class="cls-6" d="M78.49,272.7c2.97-3.47,7.72-4.84,10.9-.87.91,1.1,1.66,2.39,2.24,3.78-.19-1.5-.72-2.98-1.6-4.26-3.11-4.68-9.22-3.29-11.53,1.35Z"/>
    <path class="cls-6" d="M86.49,277.86c-2.99-.69-3.59,4.85-3.59,4.85l2.19,1.3-2.36.51s-.65,4.14,2.36,4.74c3.01.61,3.7-5.61,3.7-5.61,0,0,.69-5.11-2.29-5.8Z"/>
    <path class="cls-6" d="M87.8,249.98c-4.92-.69-10.55,12.3-10.55,12.3,1.99-2.13,7.62-16.17,15.24-5.89,0,0,.23-5.71-4.69-6.41Z"/>
    <path class="cls-6" d="M61.56,271.51s-.76.98-.46,1.82c.17.49.63.82,1.38.99.25.06.49.09.72.09.45,0,.85-.12,1.2-.35.82-.55.99-1.55,1-1.64l-.19-5.73-3.64,4.82ZM64.11,273.65c-.39.27-.91.33-1.52.19-.56-.13-.9-.36-1.02-.67-.17-.48.22-1.14.39-1.35l2.79-3.69.14,4.27s-.14.83-.78,1.26Z"/>
    <path class="cls-6" d="M57.26,286s-.76.98-.46,1.82c.17.49.63.82,1.38.99.25.06.49.09.72.09.45,0,.85-.12,1.2-.35.82-.55.99-1.55.99-1.6v-.03s-.71-6.88-.71-6.88l-3.12,5.96ZM59.81,288.14c-.39.26-.9.33-1.52.18-.56-.13-.9-.36-1.02-.67-.17-.48.22-1.14.41-1.39l2.37-4.53.54,5.16c-.03.15-.21.85-.78,1.23Z"/>
    <path class="cls-6" d="M53.6,275.97c-.05.07-.53.7-.32,1.29.12.35.45.59.97.71.17.04.34.06.5.06.32,0,.6-.08.84-.24.57-.38.69-1.08.7-1.13l.61-5.82-3.29,5.14ZM55.79,276.59s-.09.52-.48.78c-.24.16-.56.2-.94.11-.34-.08-.55-.21-.61-.39-.1-.28.14-.68.25-.83l2.17-3.38-.39,3.71Z"/>
  </g>
  <g>
    <path class="cls-9" d="M113.43,46.06c-1.71-2.78-6.16-9.74-7.62-10.73-.71-.48-1.04-.91-1.07-1.37-.04-.57.37-.94.77-1.3.19-.17.39-.35.54-.56-.58.13-1.56.52-2.04.71-.61.24-.94.37-1.15.4-.37.04-.68-.16-.79-.53-.15-.47.02-1.32.43-2-.85.22-1.89.53-2.85.82l-.12.04-7.93-1.48c-34.85,2.55-40.97,30.57-41.41,32.88,1.56,8.5,5.22,15.01,6.25,16.72.91-.49,3.17-1.39,14.56,2.33,12.27,4.01,15.33.58,15.59.24.2-.48,1.45-2.99,5.92-3.36,2.32-.2,4.52.68,5.88,2.33.87,1.05,2,2.08,5.8,3.06,15.96-9.66,9.33-37.75,9.26-38.04l-.03-.14ZM87.46,77.85c-1.11,1.66-2.99,2.66-4.99,2.66-.15,0-.29,0-.44-.02-2.09-.15-3.86-1.34-4.73-3.19-.93-1.97-1.14-4.66-.62-7.99.76-4.83,2.34-8.4,4.72-10.62,1.12-1.04,2.63-1.49,4.16-1.23,1.56.27,2.88,1.23,3.6,2.63,3.86,7.43.59,14.32-1.7,17.77ZM89.39,58.84c-3.18-3.97-7.93-2.6-10.9.87,2.31-4.65,8.43-6.03,11.53-1.35.89,1.29,1.41,2.77,1.6,4.26-.58-1.39-1.33-2.67-2.24-3.78ZM92.49,43.4c-7.62-10.29-13.25,3.75-15.24,5.89,0,0,5.63-12.99,10.55-12.3,4.92.69,4.69,6.41,4.69,6.41ZM107.53,41.12c2.21.29,4.39,8.28,4.39,8.28-5.19-11.72-8.33-2.94-8.48-3.66-.03-.13,1.89-4.91,4.1-4.62ZM111.66,70.68c-1.2,5.27-3.05,7.26-4.53,8.4-.47.36-1.03.55-1.61.55-.21,0-.43-.03-.65-.08-.79-.2-1.43-.74-1.76-1.49-.7-1.58-1.29-4.59-.11-9.95.68-3.08,2.65-8.91,5.25-8.91,1.21,0,2.18.44,2.88,1.31,1.93,2.42,1.16,7.4.53,10.15ZM113.5,64.81c-.05-.64-.06-1.26-.14-1.88-.41-6.05-4.94-5.53-9.34-3.66,3.06-2.36,8.77-3.36,9.57,1.72.24,1.29.14,2.58-.1,3.83Z"/>
    <path class="cls-8" d="M61.3,63.8c-.19.25-.58.9-.41,1.39.11.32.45.54,1.02.67.62.14,1.13.08,1.52-.18.57-.38.75-1.08.78-1.23l-.54-5.16-2.37,4.53Z"/>
    <path class="cls-8" d="M65.58,49.34c-.17.21-.56.87-.39,1.35.11.32.45.54,1.02.67.62.14,1.13.08,1.52-.19.64-.43.78-1.25.78-1.26l-.14-4.27-2.79,3.69Z"/>
    <path class="cls-3" d="M85.38,58.44c-.23-.04-.46-.06-.68-.06-.97,0-1.9.36-2.62,1.03-2.21,2.06-3.7,5.44-4.42,10.04-.49,3.13-.31,5.62.54,7.41.72,1.52,2.18,2.5,3.9,2.62,1.81.13,3.54-.71,4.52-2.2,2.65-3.98,5.08-10.13,1.64-16.75-.58-1.12-1.63-1.89-2.88-2.1Z"/>
    <path class="cls-13" d="M105.34,85.53c-.3-.07-.59-.13-.86-.2-2.39-.06-4.82.35-7.15.66-3.63.47-7.49,1.59-10.91,2.21,3.95-1.79,10.07-3.63,15.41-3.64-2.46-.87-3.42-1.8-4.2-2.75-1.14-1.38-3.06-2.13-5.03-1.97-4.15.34-5.05,2.68-5.09,2.78l-.04.09c-.12.19-3.05,4.7-16.77.22-7.54-2.47-12.2-3.26-13.86-2.35-.02.01-.05.02-.08.04-.11.39-.56,2.24.29,3.45.49.69,1.35,1.06,2.56,1.11,5.85.22,16.4,6.97,17.58,7.74,3.49,2.27,9.37,2.65,9.43,2.66-.03,0,5.77-.74,10.44-1.81,3.32-.77,5.79-.48,7.97-.24,1,.11,1.95.22,2.91.22.73,0,1.24-.19,1.52-.57.43-.57.29-1.46.22-1.77-3.95-1.28-8.2-.64-12.28-.07-4.27.54-8.54,1.17-12.89,1.24-3.23-.05-6.62-1.05-9.12-3.13-2.57-2.06-11.25-7.79-14.32-6.3,3.07-1.56,11.9,4.01,14.53,6.03,2.49,1.99,5.76,2.88,8.91,2.87,4.27-.14,8.53-.85,12.78-1.47,4.28-.68,8.73-1.44,13.01-.04,0,0-.01.03-.03.08.39-.05,1.36-.23,1.84-.84.24-.3.32-.67.25-1.12-.19-1.23-3.9-2.5-7.01-3.17v.04ZM91.67,82.43c.34.43.32.93-.05,1.32-.23-.16-.36-.3-.46-.41-.35-.33-.31-.5-.84-.71.16-.6.98-.64,1.35-.2Z"/>
    <path class="cls-8" d="M57.38,54.62c.06.18,1.31.44,1.55.28.39-.26.48-.78.48-.78l.39-3.71-2.17,3.38c-.11.15-.35.55-.25.83Z"/>
    <path class="cls-2" d="M77.39,31.83c4.07-1.38,8.71-2.37,14.01-2.77l1.29-1.38c-3.71-2.73-8.73-3.55-13.38-3.55-1.83,0-3.6.12-5.2.31-1.89.21-3.73.64-5.5,1.25,4.44,1.24,7.55,4.62,8.78,6.15Z"/>
    <path class="cls-2" d="M57.6,33.06c-.19.22-.38.44-.56.66-7.09,8.85-8.26,18.47-7.24,26.64.82-2.83,2.61-7.67,6.16-12.72-1.04-6.44.39-11.66,1.64-14.58Z"/>
    <path class="cls-3" d="M108.28,60.21c-1.35,0-3.3,3.72-4.27,8.12-1.12,5.1-.59,7.89.05,9.33.21.47.6.8,1.09.93.49.12,1,.02,1.4-.29,1.35-1.04,3.04-2.87,4.17-7.83.98-4.32.86-7.8-.34-9.31-.5-.63-1.19-.94-2.09-.94Z"/>
    <path class="cls-6" d="M111.92,49.41s-2.18-8-4.39-8.28-4.13,4.49-4.1,4.62c.15.72,3.3-8.06,8.48,3.66Z"/>
    <path class="cls-6" d="M108.25,59.21c-2.6,0-4.57,5.83-5.25,8.91-1.18,5.36-.59,8.37.11,9.95.33.75.97,1.29,1.76,1.49.21.05.43.08.65.08.58,0,1.14-.19,1.61-.55,1.48-1.14,3.33-3.13,4.53-8.4.63-2.75,1.39-7.74-.53-10.15-.69-.87-1.66-1.31-2.88-1.31ZM110.69,70.46c-1.13,4.96-2.82,6.79-4.17,7.83-.4.31-.91.42-1.4.29-.49-.12-.89-.46-1.09-.93-.64-1.44-1.17-4.23-.05-9.33.97-4.4,2.92-8.12,4.27-8.12.91,0,1.59.31,2.09.94,1.2,1.5,1.33,4.98.34,9.31Z"/>
    <path class="cls-6" d="M108.66,64.65c-2.06-.52-3.51,5.33-3.51,5.33l1.43.86-1.7.6s-.59,4.19,1.47,4.67c1.83.43,3.07-4.35,3.33-5.45.04-.16.06-.31.07-.47.07-.91.67-5.1-1.1-5.54Z"/>
    <path class="cls-6" d="M104.02,59.27c4.4-1.87,8.93-2.39,9.34,3.66.08.62.09,1.25.14,1.88.24-1.24.34-2.54.1-3.83-.8-5.08-6.51-4.08-9.57-1.72Z"/>
    <path class="cls-6" d="M93.6,27.08c-5.43-4.22-13.63-4.31-19.6-3.64-6.98.79-13.44,4.31-17.73,9.66-8.01,10-8.68,20.94-7.09,29.8,0,0,0,.03,0,.03h.01c1.67,9.28,5.8,16.28,6.58,17.52-.18.68-.57,2.71.46,4.17.67.96,1.8,1.48,3.35,1.54,4.53.17,12.87,4.84,17.08,7.58,3.72,2.42,9.66,2.8,10,2.81.06,0,5.92-.75,10.63-1.83,3.15-.73,5.43-.47,7.63-.22,1.03.12,2.01.23,3.02.23s1.84-.33,2.32-.97c.53-.71.53-1.63.46-2.21.61-.12,1.59-.42,2.18-1.15.42-.52.58-1.17.47-1.91-.33-2.13-5.21-3.44-7.73-3.98,14.59-9.93,9.55-35.23,8.88-38.27,7.36-6.55,11.22-12.58,6.36-20.55-4.5-7.38-24.55.3-27.26,1.38ZM74.11,24.43c1.6-.18,3.37-.31,5.2-.31,4.65,0,9.67.83,13.38,3.55l-1.29,1.38c-5.3.4-9.93,1.39-14.01,2.77-1.23-1.54-4.34-4.91-8.78-6.15,1.77-.61,3.62-1.03,5.5-1.25ZM57.05,33.72c.18-.23.37-.44.56-.66-1.25,2.92-2.67,8.15-1.64,14.58-3.55,5.05-5.34,9.89-6.16,12.72-1.01-8.18.15-17.79,7.24-26.64ZM112.36,88.66c.07.46-.01.82-.25,1.12-.49.6-1.46.78-1.84.84.02-.05.03-.08.03-.08-4.28-1.41-8.73-.64-13.01.04-4.25.62-8.51,1.32-12.78,1.47-3.15,0-6.42-.89-8.91-2.87-2.63-2.02-11.46-7.59-14.53-6.03,3.07-1.49,11.75,4.24,14.32,6.3,2.5,2.09,5.89,3.09,9.12,3.13,4.34-.07,8.62-.69,12.89-1.24,4.07-.57,8.32-1.21,12.28.07.07.31.21,1.2-.22,1.77-.28.38-.79.57-1.52.57-.96,0-1.9-.11-2.91-.22-2.18-.25-4.65-.53-7.97.24-4.66,1.08-10.47,1.81-10.44,1.81-.06,0-5.93-.39-9.43-2.66-1.18-.77-11.74-7.53-17.58-7.74-1.21-.04-2.08-.42-2.56-1.11-.85-1.2-.4-3.06-.29-3.45.02-.01.05-.02.08-.04,1.65-.9,6.32-.11,13.86,2.35,13.73,4.49,16.66-.02,16.77-.22l.04-.09c.04-.1.94-2.43,5.09-2.78,1.97-.17,3.89.59,5.03,1.97.78.95,1.74,1.88,4.2,2.75-5.34.01-11.46,1.86-15.41,3.64,3.42-.62,7.28-1.75,10.91-2.21,2.33-.3,4.77-.72,7.15-.66.28.07.56.13.86.2v-.04c3.12.67,6.83,1.93,7.02,3.17ZM104.2,84.23c-3.81-.98-4.94-2.01-5.8-3.06-1.36-1.65-3.56-2.52-5.88-2.33-4.47.37-5.72,2.88-5.92,3.36-.27.34-3.32,3.78-15.59-.24-11.39-3.72-13.64-2.82-14.56-2.33-1.03-1.71-4.69-8.21-6.25-16.72.44-2.31,6.56-30.33,41.41-32.88l7.93,1.48.12-.04c.95-.29,2-.6,2.85-.82-.41.67-.58,1.53-.43,2,.12.37.42.58.79.53.21-.03.53-.16,1.15-.4.48-.19,1.46-.57,2.04-.71-.15.2-.35.38-.54.56-.4.36-.81.74-.77,1.3.03.46.36.88,1.07,1.37,1.46,1,5.91,7.95,7.62,10.73l.03.14c.07.28,6.71,28.38-9.26,38.04Z"/>
    <path class="cls-6" d="M91.16,83.34c.11.12.24.25.46.41.37-.39.39-.89.05-1.32-.36-.44-1.18-.4-1.35.2.52.22.49.38.84.71Z"/>
    <path class="cls-6" d="M85.55,57.45c-1.52-.26-3.04.18-4.16,1.23-2.38,2.22-3.97,5.79-4.72,10.62-.52,3.33-.31,6.02.62,7.99.88,1.85,2.64,3.04,4.73,3.19.15.01.29.02.44.02,2,0,3.89-.99,4.99-2.66,2.29-3.44,5.55-10.33,1.7-17.77-.73-1.4-2.04-2.36-3.6-2.63ZM86.62,77.29c-.99,1.48-2.72,2.33-4.52,2.2-1.72-.12-3.18-1.11-3.9-2.62-.85-1.79-1.03-4.28-.54-7.41.72-4.6,2.21-7.98,4.42-10.04.72-.67,1.65-1.03,2.62-1.03.23,0,.45.02.68.06,1.25.22,2.3.98,2.88,2.1,3.44,6.63,1.01,12.77-1.64,16.75Z"/>
    <path class="cls-6" d="M78.49,59.71c2.97-3.47,7.72-4.84,10.9-.87.91,1.1,1.66,2.39,2.24,3.78-.19-1.5-.72-2.98-1.6-4.26-3.11-4.68-9.22-3.29-11.53,1.35Z"/>
    <path class="cls-6" d="M85.43,64.87c-2.99-.69-3.59,4.85-3.59,4.85l2.19,1.3-2.36.51s-.65,4.14,2.36,4.74c3.01.61,3.7-5.61,3.7-5.61,0,0,.69-5.11-2.29-5.8Z"/>
    <path class="cls-6" d="M87.8,36.99c-4.92-.69-10.55,12.3-10.55,12.3,1.99-2.13,7.62-16.17,15.24-5.89,0,0,.23-5.71-4.69-6.41Z"/>
    <path class="cls-6" d="M65.18,49.04s-.76.98-.46,1.82c.17.49.63.82,1.38.99.25.06.49.09.72.09.45,0,.85-.12,1.2-.35.82-.55.99-1.55,1-1.64l-.19-5.73-3.64,4.82ZM67.73,51.18c-.39.27-.91.33-1.52.19-.56-.13-.9-.36-1.02-.67-.17-.48.22-1.14.39-1.35l2.79-3.69.14,4.27s-.14.83-.78,1.26Z"/>
    <path class="cls-6" d="M60.88,63.53s-.76.98-.46,1.82c.17.49.63.82,1.38.99.25.06.49.09.72.09.45,0,.85-.12,1.2-.35.82-.55.99-1.55.99-1.6v-.03s-.71-6.88-.71-6.88l-3.12,5.96ZM63.43,65.67c-.39.26-.9.33-1.52.18-.56-.13-.9-.36-1.02-.67-.17-.48.22-1.14.41-1.39l2.37-4.53.54,5.16c-.03.15-.21.85-.78,1.23Z"/>
    <path class="cls-6" d="M57.22,53.5c-.05.07-.53.7-.32,1.29.12.35.45.59.97.71.17.04.34.06.5.06.32,0,.6-.08.84-.24.57-.38.69-1.08.7-1.13l.61-5.82-3.29,5.14ZM59.41,54.12s-.09.52-.48.78c-.24.16-1.49-.1-1.55-.28-.1-.28.14-.68.25-.83l2.17-3.38-.39,3.71Z"/>
  </g>
</svg>